<?xml version="1.0" encoding="UTF-8" standalone="no"?>
<svg
   xmlns:dc="http://purl.org/dc/elements/1.1/"
   xmlns:cc="http://creativecommons.org/ns#"
   xmlns:rdf="http://www.w3.org/1999/02/22-rdf-syntax-ns#"
   xmlns:svg="http://www.w3.org/2000/svg"
   xmlns="http://www.w3.org/2000/svg"
   viewBox="0 0 800 533.33331"
   height="533.33331"
   width="800"
   xml:space="preserve"
   id="svg2"
   version="1.1"><metadata
     id="metadata8"><rdf:RDF><cc:Work
         rdf:about=""><dc:format>image/svg+xml</dc:format><dc:type
           rdf:resource="http://purl.org/dc/dcmitype/StillImage" /></cc:Work></rdf:RDF></metadata><defs
     id="defs6"><clipPath
       id="clipPath20"
       clipPathUnits="userSpaceOnUse"><path
         id="path18"
         d="M 0,0 H 600 V 400 H 0 Z" /></clipPath><clipPath
       id="clipPath32"
       clipPathUnits="userSpaceOnUse"><path
         id="path30"
         d="M 0,400 H 600 V 0 H 0 Z" /></clipPath></defs><g
     transform="matrix(1.3333333,0,0,-1.3333333,0,533.33333)"
     id="g10"><path
       id="path12"
       style="fill:#78b0d7;fill-opacity:1;fill-rule:nonzero;stroke:none"
       d="M 0,0 H 600 V 400 H 0 Z" /><g
       id="g14"><g
         clip-path="url(#clipPath20)"
         id="g16"><g
           transform="translate(331.3125,278.6172)"
           id="g22"><path
             id="path24"
             style="fill:#ffffff;fill-opacity:1;fill-rule:evenodd;stroke:none"
             d="M 0,0 0.594,-0.243 0.699,0.351 Z M -0.351,-0.555 -1.638,-1.114 C -2.441,-0.385 -3.94,-3.315 -3.94,-3.595 l 0.766,-0.312 1.744,0.279 c 1.012,0.313 1.952,2.481 1.079,3.073 m 1.084,-268.853 0.315,-0.211 0.489,0.491 H 1.186 Z m -31.636,63.656 -0.209,0.448 -0.837,0.63 c -0.072,0.244 0.52,-0.385 0.765,-0.244 0.281,0.174 -0.45,2.51 -0.694,2.755 -1.888,1.745 -2.337,-2.337 -2.129,-2.683 0.698,-1.152 -0.208,-2.76 0.28,-3.978 0.104,-0.28 0.978,-0.348 1.186,-0.314 3.452,0.347 -0.908,4.186 1.638,3.386 m 0.457,1.707 0.591,-0.521 0.28,0.38 -0.351,0.347 z m -4.082,-6.592 0.382,-0.346 0.872,0.311 -0.453,0.314 h -0.521 z m 4.843,-0.77 0.211,-0.417 0.419,0.383 v 0.458 z m -1.076,0.109 -0.351,-0.317 0.454,-0.352 0.069,-0.413 0.454,0.244 -0.104,0.695 z m -1.608,0.172 0.42,-0.383 0.698,0.416 -0.941,0.244 z m 0.28,-1.323 0.313,-0.389 0.142,0.389 -0.315,0.208 z m -0.907,-0.873 0.104,-0.316 0.386,-0.105 0.557,0.212 0.071,0.31 -0.351,0.383 h -0.52 z m -0.557,-1.151 -0.347,-0.421 0.277,-0.28 0.451,0.317 z m 3.347,0.208 -0.314,-0.731 0.488,-0.035 z m -1.223,0.242 0.668,-0.626 v 0.906 z m -1.463,-5.439 0.036,-0.556 0.385,-0.037 -0.104,0.629 z m 0.071,4.532 c 0.28,0.179 0.629,0.246 0.943,0.281 l -0.351,0.696 -0.698,0.039 c 0.144,-0.278 0.178,-0.702 0.106,-1.016 m -1.464,-1.15 0.242,0.422 -0.383,0.416 h -0.662 l -0.07,-0.453 z m 2.509,-2.337 0.557,-0.592 v 0.662 z m 0.906,-0.837 0.313,-0.417 0.389,0.453 z m 1.257,6.174 0.174,-0.384 0.699,0.069 -0.593,0.49 z m 0.421,-0.834 -0.315,-1.049 c 0.626,-1.989 2.51,-0.695 2.404,0.069 -0.137,0.804 -1.288,1.572 -2.089,0.98 m -3.209,-1.854 c 0.032,-0.24 0.661,-0.207 0.452,0 l 0.871,0.213 0.317,0.346 h -1.431 z m 0.838,-1.321 0.905,0.034 0.033,0.559 c -0.417,0.035 -0.905,-0.142 -1.287,-0.28 z m 0.278,-0.491 0.347,-0.277 0.245,-0.767 0.454,-0.245 0.384,0.558 -0.071,1.079 h -0.767 z m -1.015,-1.846 0.666,-0.735 0.696,0.143 -0.281,0.556 -0.592,0.139 -0.21,0.28 z m 1.816,-13.187 c -0.209,0.35 -0.105,-0.941 0.208,-1.187 0.386,-0.312 1.26,-0.449 1.429,0 l -0.135,0.385 c -0.351,1.189 -0.77,2.442 -1.575,3.416 -0.346,0.423 -1.635,-0.312 -1.426,-0.8 z m -0.209,-0.908 -1.499,2.337 c -0.454,0.314 -0.804,0.107 -0.804,-0.381 -0.067,-1.01 2.439,-2.963 2.303,-1.956 m -2.199,0.666 0.036,-0.979 0.35,-0.278 c -0.14,-0.174 0.277,-0.454 0.451,-0.245 l 0.143,0.523 -0.212,0.664 c -0.245,0.14 -0.522,0.242 -0.768,0.315 m 1.294,-4.187 0.593,0.978 c 0.277,-0.207 0.559,0.487 0.135,0.699 l -0.801,0.381 -0.14,0.211 -0.381,-0.348 c 0.137,-0.351 0.347,-1.954 0.594,-1.921 m 0.94,-2.65 0.174,0.591 -0.419,0.701 -0.768,-0.419 0.315,-0.384 -0.106,-0.42 0.35,-0.383 z m 1.744,0.348 c 0.558,0.141 1.011,-1.745 1.185,-1.219 0.245,0.66 -0.768,5.198 -1.044,5.859 -0.386,0.87 -1.816,0.347 -1.816,-0.526 0.069,-1.672 0.143,-4.532 1.675,-4.114 m 0.174,-3.276 c -0.141,0.38 0,0.905 0.243,1.184 -0.35,0 -0.695,0.068 -1.01,0.211 -0.804,0.417 -0.178,-2.726 0.767,-1.395 m -1.115,-1.331 0.8,0.593 h -0.8 z m 1.358,0.389 -0.172,-0.524 0.172,-0.736 0.21,0.28 c 0.033,0.279 0,0.735 -0.21,0.98 m 0.522,0.346 0.559,-0.837 c 0.558,-0.067 1.151,-0.593 1.499,-1.011 -0.103,0.592 -0.45,1.223 -0.835,1.706 -0.106,-0.034 -1.672,0.804 -1.223,0.142 m -0.033,-1.182 c -0.069,-0.632 0.456,-1.432 0.905,-1.779 0.315,-0.177 0.908,0.033 0.873,0.415 -0.241,0.557 -0.8,1.29 -1.431,1.43 z m 2.023,-2.76 -0.975,0.664 c -0.421,-0.28 -0.629,0.279 -0.908,0.384 l -0.454,-0.105 c -0.034,-0.173 0.347,-0.42 0.347,-0.592 0,-0.243 -0.625,-0.945 -0.625,-1.013 l 0.313,-0.21 c 0.312,0.07 2.86,0.35 2.302,0.872 m -0.486,-3.625 -0.351,0.522 0.351,0.279 v 0.664 l -0.247,0.453 -0.555,-0.071 c 0.137,-0.416 0.204,-0.489 0.204,-0.489 0,0 -0.135,0.141 -0.347,-0.519 l 0.176,-0.527 c 0.171,-0.21 0.488,-0.312 0.769,-0.312 m 0.138,1.152 c 0.035,-0.245 0.28,-1.186 0.594,-1.084 l 0.415,0.28 -0.033,0.626 c -0.281,0.281 -0.873,1.152 -0.976,0.178 m 1.151,-0.351 0.137,-0.386 0.558,-0.382 0.178,0.035 -0.143,0.382 z m -0.278,-2.337 0.314,0.8 -0.178,0.352 -0.314,-0.106 v -0.697 c -0.52,-0.21 -0.035,-0.768 0.178,-0.349 m 2.023,1.815 0.208,0.033 -0.208,0.383 c -0.349,0.49 -0.803,0.838 -0.977,1.499 l -0.281,-0.033 0.039,-1.044 c 0.204,-0.422 0.762,-0.702 1.219,-0.838 m -0.144,-1.05 0.317,0.035 -0.14,0.559 -0.49,0.106 -0.208,-0.173 z m 0.352,-1.357 0.278,0.105 v 0.526 l -1.112,0.87 -0.177,-0.245 c 0.177,-0.457 0.659,-0.907 1.011,-1.256 m 0.767,-1.607 0.351,0.593 -0.21,0.661 c -0.49,-0.135 -0.871,0 -1.293,-0.033 l -0.56,-0.206 0.28,-0.208 0.665,0.034 c 0,-0.385 0.453,-0.7 0.767,-0.841 m 2.094,-3.519 c 2.755,-1.05 0.732,0.871 -0.037,1.079 -0.8,0.245 -2.09,0.317 -2.859,0.768 -3.628,2.199 1.046,-1.12 2.896,-1.847 m -2.268,-0.281 -0.277,-0.244 0.73,-0.211 z m 5.126,-3.384 0.28,0.244 -0.383,0.348 -0.348,-0.28 z m 1.502,-0.103 c 1.743,3.103 -1.15,1.879 -3.733,3.141 -3.384,1.6 3.175,-4.081 3.733,-3.141 m 0.419,-0.246 v -0.453 l 0.452,0.14 0.489,0.732 -0.316,0.141 c -0.244,-0.034 -0.523,-0.383 -0.625,-0.56 m 3.103,1.292 -1.223,0.351 c -0.17,-0.424 -1.567,-0.11 -1.186,-0.665 0.314,-0.418 3.352,-1.361 3.524,-0.838 l -0.172,0.386 c 0.208,1.989 -1.186,-0.738 -0.943,0.766 m 3.174,0 c -0.107,0.14 -1.189,4.287 -1.605,2.614 -0.176,-0.697 -0.593,-1.57 -0.176,-2.195 0.317,-0.458 0.98,-0.841 1.537,-0.733 z m -2.615,-5.233 0.452,-0.418 0.419,0.451 -0.279,0.247 z m 0.241,0.665 h 0.385 l 0.036,0.382 -0.489,0.245 -0.173,-0.418 z m 13.673,-3.699 0.389,-0.034 c 0.067,0.379 0.034,0.804 -0.072,1.117 l -0.453,0.171 0.174,-0.382 -0.386,-0.491 z m -8.681,3.523 c -0.073,-0.383 1.462,-0.281 1.358,-0.456 l -1.532,-0.663 c -0.281,-0.242 0.693,-0.135 1.009,-0.279 l -0.209,-0.521 c 0.172,-0.521 1.079,-0.312 1.358,-0.452 l 0.839,-0.214 c 0.347,0.457 -0.695,0.983 -0.348,1.152 1.012,0.526 0.661,-0.836 1.43,-0.904 0.382,-0.034 0.592,0.453 1.048,0.139 l 1.042,-0.767 c 0.387,0.767 -1.009,1.29 -1.081,1.744 -0.069,0.453 -2.091,0.347 -1.949,0.872 0.314,1.152 5.927,-1.253 5.927,0.174 0,2.337 -5.613,0.452 -6.661,0.351 -0.281,0 -2.095,0.348 -2.231,-0.176 m 16.215,2.406 0.559,-0.487 c 0.626,0.56 1.608,0.522 2.09,1.253 l -0.798,0.035 -0.489,-0.485 c -0.385,0.07 -1.081,0.036 -1.362,-0.316 m -13.008,0.489 c 1.673,-0.416 -3.524,-0.07 -5.126,0.591 -0.144,0.072 -8.161,-0.314 -0.034,-5.161 l -0.702,1.292 c 0.21,0.975 1.464,1.779 2.446,1.639 2.544,-0.279 13.149,-0.561 14.438,1.291 0.241,0.381 -0.42,0.872 -0.731,0.837 -1.812,-0.072 -2.201,0 -3.874,0.874 -3.415,1.742 -5.194,4.079 -8.056,5.158 l -0.035,0.173 c 0.172,0.387 1.151,0 1.151,0.387 0,0.765 -1.674,3.799 -2.165,3.593 -6.031,-2.547 -3.766,-9.106 2.688,-10.674 m -64.806,211.055 0.279,0.524 c -0.14,0.348 0.207,0.941 0.072,1.083 -0.424,-0.279 -0.804,-0.735 -1.016,-1.185 -0.034,-0.35 0.386,-0.736 0.665,-0.422 m 41.541,56.087 0.315,-0.559 0.486,-0.102 0.386,-0.524 0.173,0.592 -0.661,0.664 z m -2.303,0.313 -0.208,-0.347 0.349,-0.695 0.769,-0.178 0.348,0.385 -0.594,0.072 z m -3.314,0.769 0.457,-0.626 h 0.661 l -0.594,0.558 z m 19.674,-5.964 0.382,-0.279 c 0.419,0.208 1.084,0.208 1.465,-0.037 l 0.559,0.702 -0.279,0.448 -1.047,-0.762 -0.351,0.45 z m 46.667,-41.749 c 0.211,-0.106 0.558,0 0.735,0.067 l 0.173,0.453 -0.141,0.14 c -0.276,-0.103 -0.625,-0.347 -0.767,-0.66 m -0.627,0.034 c 0.244,-0.034 0.977,0.906 1.151,1.079 l 0.384,0.037 0.594,0.627 c 0.037,0.348 -0.872,0.208 -1.045,0.069 -0.559,-0.454 -0.98,-1.117 -1.084,-1.812 m 2.929,2.79 -0.415,0.207 -0.073,-0.415 0.208,-0.281 0.351,-0.142 c 0.039,0.212 0.039,0.457 -0.071,0.631 m 0.11,0.418 c 0.275,0.245 0.52,0.592 0.694,0.941 l 0.419,0.105 0.277,0.487 -0.316,0.071 c -0.415,-0.351 -0.905,-0.521 -1.22,-0.978 z m 1.426,-0.661 c 0.246,-0.667 1.43,0.695 0.454,0.801 l -1.499,-0.317 c -0.771,-0.382 0.906,-0.521 1.045,-0.484 m 0.766,-0.63 c 0.351,-0.242 0.907,-0.242 1.295,-0.139 l 0.275,0.381 -0.417,0.317 -0.455,-0.038 -0.174,-0.313 z m -2.159,7.29 c 0.136,-0.28 0.593,0.139 0.449,0.418 -0.136,0.419 -0.521,1.083 -0.973,1.254 l -0.107,-0.279 c 0.073,-0.45 0.279,-1.043 0.631,-1.393 m -206.628,85.839 0.348,0.246 c 0.033,0.381 -0.246,0.834 -0.488,1.08 -0.316,-0.174 0.106,-1.013 0.14,-1.326 m 0.627,-1.536 -0.035,-0.453 0.314,-0.034 0.103,0.381 z m 44.75,1.046 0.211,0.072 0.137,0.418 -0.246,-0.034 z m -0.14,-0.872 0.107,-0.103 0.173,0.593 h -0.206 z m -0.418,-1.534 0.347,0.594 -0.034,0.525 z m 27.031,-25.671 c -1.955,0.037 -4.114,-0.208 -6.069,0.105 z m -89.709,145.448 c -0.139,-1.534 0.944,-3.906 0.944,-5.58 0,-1.919 -2.269,-5.582 -3.734,-4.36 -0.211,0.209 2.861,2.685 2.126,3.522 -0.381,0.418 -1.326,-1.499 -1.917,-1.116 l 0.698,1.011 c 0.279,0.176 0.939,0.176 0.939,0.663 -0.033,0.628 -2.718,1.151 -3.345,1.326 -0.49,0.141 -2.581,2.198 -2.724,1.885 -4.567,-10.152 5.27,-13.745 -0.835,-12.524 -0.593,0.14 -0.629,-1.081 -0.909,-1.638 -0.974,-2.059 -1.356,-5.371 -2.507,-7.57 -2.303,-4.464 -7.327,-25.424 -5.198,-28.67 5.79,-8.928 -0.698,-10.464 5.579,-17.58 2.964,-3.419 18.557,-24.45 18.836,-30.972 0.034,-1.08 0.246,-3.07 -0.803,-3.138 l -1.884,0.66 -1.08,-0.278 c 0.488,-1.05 3.591,-4.115 4.217,-4.395 l 1.781,0.872 c 0.107,-1.57 8.023,-17.231 9.487,-16.915 1.744,0.415 2.129,2.228 0.978,3.346 -3.281,3.279 -9.558,18.345 -12.838,24.974 -1.043,2.091 -1.043,5.409 -0.382,7.78 l 0.068,1.464 -0.241,0.839 c 4.114,0 7.395,-11.2 8.614,-15.138 2.091,-6.527 12.242,-15.907 17.929,-25.152 1.254,-2.023 0.627,-6.556 0.764,-7.705 0.11,-0.667 -1.88,0 -1.533,-0.909 2.861,-7.395 17.373,-12.487 24.835,-16.046 0.243,0.279 0.732,-0.243 0.945,-0.314 l 3.415,-1.008 c 7.288,-3.106 3,3.657 10.985,-0.106 l -0.556,0.733 -1.431,0.974 c 0.767,0.872 2.266,-1.952 2.58,-2.231 6.069,-5.093 7.956,-4.987 14.653,-7.988 2.371,-1.08 6.698,-0.102 7.255,-1.464 V 7.082 c -0.245,-3.942 2.44,-7.637 4.742,-10.811 0.697,-0.944 2.235,-2.582 3.07,-1.779 1.046,1.009 -1.606,2.891 -0.629,2.65 3.875,-0.977 3.839,-7.432 8.128,-6.975 4.637,0.52 3.942,-2.375 5.126,-2.689 1.22,-0.312 0.246,1.571 1.254,1.013 0.701,-0.383 -0.555,-3.141 1.363,-2.444 3.556,1.292 0.14,3.213 0.661,3.735 8.337,8.402 6.382,-1.291 8.652,-3.349 10.64,-9.626 -6.697,-18.278 -8.688,-23.823 -5.125,-14.265 4.784,-11.581 0.352,-15.349 l -0.038,-0.034 c -10.704,-4.706 2.48,-13.181 5.583,-18.938 l 5.372,-10.116 c 1.677,-3.104 3.591,-9.208 4.572,-10.325 1.777,-2.057 8.195,-5.024 7.948,-6.208 l 10.22,-6.28 c 4.816,-2.963 3.559,-11.335 3.84,-16.249 l 0.103,-2.482 c 0.07,-1.115 0.731,-3.139 -0.384,-3.31 -1.57,-17.268 0.666,-27.696 -0.522,-43.531 -3.524,-1.884 -2.373,-28.217 -0.907,-30.52 2.23,-3.488 2.615,0.104 2.789,0.14 0.593,0.139 1.675,0.174 1.814,-0.419 1.501,-6.697 -3.625,-14.125 -1.254,-20.58 0.176,-0.559 0.311,-2.23 -0.455,-2.824 l -0.279,0.42 c 0,0.557 0.767,1.674 0.487,2.369 -0.521,1.363 -3.243,2.128 -4.254,1.049 -3.314,-3.486 4.92,-7.533 7.183,-8.93 l -0.348,-0.873 c -0.66,-0.14 -2.438,0.381 -2.616,-0.662 -0.346,-2.512 0.282,-5.581 2.093,-7.325 0.421,-0.351 1.708,3.208 1.257,2.263 -0.906,-1.845 -2.965,-4.425 -1.605,-5.993 0.871,-1.014 2.372,-3.352 3.242,-2.337 l -0.94,-1.502 c -0.033,-0.629 0.872,-0.943 1.397,-1.291 l 0.695,0.42 -0.069,-0.664 c 0.14,-1.361 -1.361,0.244 -0.905,-0.906 l 1.6,-2.127 c 0.039,-0.033 0.838,-0.663 0.873,-0.313 l -0.347,1.881 c 1.117,0.347 0.278,-2.544 1.328,-0.838 l 0.45,0.422 c 0.277,0.661 -1.569,0.872 -1.323,1.008 0.662,0.35 2.126,-1.047 2.506,-0.592 0.703,0.697 -2.335,1.015 -2.124,1.29 0.382,0.526 2.302,-0.555 2.581,-0.871 0.629,-0.733 -0.523,-1.184 -0.312,-1.884 0.101,-0.382 0.695,-0.975 0.416,-1.43 l -0.523,-0.382 c -0.14,0.243 0.419,2.404 -0.696,2.371 -0.733,-0.034 0.177,-1.712 -0.314,-1.956 l -0.383,0.838 -2.336,-0.627 c -0.212,-2.827 1.986,-2.338 2.545,-2.756 0.174,-0.138 -1.57,-0.871 -0.837,-1.184 3.487,-1.605 0.383,5.303 6.521,2.442 l -0.627,-0.873 c -0.106,-0.033 -2.964,0 -3.35,-1.082 -0.663,-1.813 -0.068,-2.092 1.503,-3.176 0.554,-0.381 1.463,1.117 1.113,1.744 l -0.521,0.593 c 0.349,0.77 2.577,1.71 3.486,1.398 l -1.429,-1.956 c -0.242,-0.485 0.593,-1.949 -0.733,-1.846 l 0.314,0.524 0.033,0.873 -1.567,-0.84 c 0.102,-1.151 2.931,-2.547 4.014,-2.44 0.762,0.104 0.448,3.244 0.521,4.079 0.241,2.511 3.415,6.35 5.685,5.304 0.067,0 -4.987,8.196 -2.304,11.928 l 0.771,-0.591 c 0.45,-0.526 1.008,-0.28 1.392,0.243 2.232,3.139 6.071,6.554 5.234,10.289 -1.539,6.662 -5.545,1.988 -8.163,8.964 -0.91,2.477 5.685,3.905 6.59,4.292 0.384,0.172 -0.66,0.555 -0.973,0.874 -1.327,1.287 -0.212,3.728 0.171,5.544 0.457,2.023 1.886,1.743 2.825,3.101 0.491,0.733 -2.928,0.455 -1.916,1.573 2.966,3.38 1.502,-3.142 4.431,-0.386 0.872,0.8 0.28,2.756 -0.63,3.521 l -2.058,-0.698 0.768,-0.312 c 0.384,-0.348 -1.567,-1.08 -1.778,-0.526 l 0.733,0.559 c 0.036,0.352 -1.292,0.106 -1.432,0.144 -1.012,0.208 -2.441,5.958 -1.29,6.624 0.033,0.036 4.745,-2.687 6.873,-2.13 1.812,0.492 2.302,6.212 2.302,7.502 -0.037,0.769 -0.981,0.804 -0.981,2.337 0,0.068 -0.382,1.743 0.071,1.606 4.848,-1.606 11.302,-1.224 15.278,2.161 2.582,2.198 0.594,11.648 -0.906,12.834 l -4.572,4.431 -0.101,3.244 c 10.883,-6.803 6.138,-11.056 17.789,-1.36 2.021,1.677 2.09,3.801 2.893,6.241 0,0 5.41,7.886 5.163,6.974 -0.346,-1.112 -5.927,-6.378 -4.185,-6.169 14.895,10.362 5.339,22.777 13.671,28.672 13.187,9.347 13.602,3.624 21.973,10.464 7.117,33.657 0.701,25.322 17.475,46.284 7.64,9.524 -3.869,13.219 -8.508,16.846 -0.939,0.733 -8.301,8.653 -9.838,5.966 l -5.719,0.835 -0.071,-0.485 -1.046,0.383 -2.475,0.731 c -2.024,0.944 -3.767,-0.559 -4.048,-1.257 -0.103,-0.313 -1.151,3.42 -7.111,6.281 -4.953,2.405 -8.55,-1.362 -11.234,-6.526 -0.314,-0.593 -0.94,-0.975 -0.627,-0.277 0.209,0.488 1.88,2.616 1.185,3.281 l -0.976,-0.177 -3.036,0.313 0.525,-0.034 0.802,0.491 3.524,0.592 c 0.8,0.382 3.695,3.802 2.964,4.462 -6.664,5.931 -7.883,-5.79 -10.326,-1.287 -0.385,0.695 -1.572,-1.816 -1.638,-1.989 l -0.698,-0.698 c -0.139,3.382 7.327,8.475 7.289,9.554 -0.106,3.487 -7.675,13.08 -8.648,14.095 -2.931,3.066 -11.793,3.556 -16.221,2.303 l -0.418,2.091 -3.104,2.023 c -3.314,0.907 -0.907,3.42 -6.45,5.928 -1.432,0.664 -2.515,0.702 -3.946,0.312 l -2.371,-0.034 c 7.466,4.327 -4.952,4.081 -4.326,6.527 0.178,0.592 1.572,0.17 1.957,0.241 0.244,0.037 2.09,0.839 1.672,1.046 -6.244,3.141 -13.987,-2.303 -20.892,-1.287 -3.071,0.45 -3.487,7.289 -6.525,6.658 -2.581,-0.554 -4.81,-2.963 -5.825,-5.404 -0.28,-0.771 -0.592,2.302 0.975,4.114 2.377,2.722 -8.298,0.456 -10.567,-2.337 -1.917,-2.371 -8.474,-6.908 -9.66,-8.999 -0.419,-0.766 1.676,-1.779 0.453,-2.964 l -0.978,0.559 c -0.278,0.382 -0.135,1.253 -1.253,2.232 -2.164,1.883 -3.802,2.79 -6.595,3.382 -2.928,0.593 -8.72,0.803 -8.72,-2.194 0,-0.109 -1.151,-0.702 -0.939,0.593 l -0.906,0.313 -1.642,1.498 c -1.008,0.696 -1.601,3.349 -2.058,3.803 l -0.973,-0.069 c 0.94,0.593 -1.187,4.531 0.558,6.905 l 0.313,-1.673 c 0.763,0.695 0.45,2.581 0.45,3.454 -0.208,26.051 -17.088,-7.086 -15.624,18.414 0.072,1.117 -1.08,0.491 -0.945,0.732 l 1.745,1.571 -0.382,-1.257 1.221,-0.978 c 11.266,19.497 -8.615,13.918 -8.929,7.187 -0.383,-8.058 -6.87,-4.22 -12.208,-7.255 -3.628,-2.057 -7.952,5.893 -9.977,8.093 -1.531,1.638 -1.396,2.303 -1.917,4.115 l -0.698,2.197 c 2.793,-0.8 -1.71,8.999 1.498,13.952 0.559,0.837 0.313,-1.604 0.771,-0.978 l 0.836,2.166 0.488,1.533 c -2.688,-0.347 0.072,4.046 0.835,8.162 0.702,3.834 8.338,-0.661 8.026,6.696 l 0.731,-0.525 0.665,0.593 0.033,0.423 c 0.593,-0.559 -0.592,-2.024 -0.069,-2.446 0.315,-0.279 2.094,1.26 2.72,1.396 l 6.907,0.386 c 1.253,0.105 1.532,-2.232 1.601,-2.617 0.143,-0.766 1.503,-0.698 2.302,-0.592 l 0.873,0.767 c 0.422,0 0.977,-1.432 1.397,-0.56 1.603,3.386 1.116,-1.604 3.242,-0.207 0.906,0.592 -3.209,1.291 -2.126,2.336 2.337,2.197 0.102,0.242 -0.593,0.732 -0.35,0.212 0.489,1.046 0.628,1.118 1.151,0.729 2.438,1.253 3.801,1.393 2.337,0.208 5.13,-1.079 7.186,-0.384 l 1.009,0.558 0.664,-0.279 -1.359,-0.243 c 0.94,-0.351 2.126,-1.57 2.896,-0.909 l 0.033,0.736 0.804,-0.838 -0.702,-0.034 1.224,-1.083 -0.038,-0.695 c 1.503,-0.143 4.19,2.752 5.374,1.219 0.768,-0.995 0.942,-0.684 2.542,-2.522 0.27,-0.31 1.952,-2.893 2.066,-3.307 0.133,-0.49 0.776,-3.685 0.715,-4.205 -0.62,-5.375 0.394,-7.119 3.051,-9.289 3.824,1.914 2.126,8.996 1.846,10.57 -5.092,30.342 11.438,13.985 18.31,28.598 l -0.38,0.348 c 0,0 -2.479,-1.043 -2.06,0 0.245,0.595 1.637,0.108 1.782,0.735 0.101,0.593 -1.608,0.313 -1.432,0.94 l 1.432,-0.034 c 0.694,0.872 3.064,0.49 2.962,1.642 -0.034,0.763 -1.219,-0.525 -3.663,0.275 l 0.142,0.42 0.245,1.185 c 0.625,-0.627 2.819,-0.766 2.892,0.246 0.138,1.812 -3.662,2.789 -3.07,4.5 l 0.593,-0.28 h 0.838 c 0.212,-0.106 0.381,-1.012 0.804,-0.839 0.835,0.318 -0.559,1.013 -0.629,1.224 -0.072,0.347 1.009,0.033 1.009,0.381 0.035,0.804 -1.29,0.872 -1.253,1.812 0,0.457 0.73,-1.114 1.042,-0.801 l 0.11,1.326 c -0.664,1.049 -2.373,1.465 -2.967,2.479 l 0.487,1.287 c 0.386,-0.102 -0.454,-0.871 -0.173,-1.116 l 2.264,-1.88 0.247,2.091 c 0.21,4.533 -0.451,1.291 1.294,3.662 l 0.171,0.871 0.211,-1.147 c -1.084,-1.54 -0.42,-1.854 -1.084,-3.768 -0.349,-0.943 1.849,-1.989 2.096,-2.336 l -0.593,-0.317 -0.353,-0.732 c -0.135,-0.454 -0.87,-3.311 -0.135,-1.956 13.392,23.967 7.463,8.06 22.563,19.362 0.596,0.415 0.422,1.397 0.109,1.917 l -0.524,-1.502 -1.013,-0.034 c -1.745,0.872 -0.419,5.582 0.835,7.187 1.955,2.511 6.528,4.115 8.059,4.85 1.083,0.522 2.442,0.034 3.557,0.416 0.422,0.106 2.86,0 2.725,0.661 -0.425,1.989 -3.526,3.175 -3.176,5.163 2.684,15.662 -10.116,1.013 -13.255,-2.789 -21.209,0.351 -10.288,-5.232 -26.262,-7.776 1.078,-3.039 -11.722,-4.919 -13.851,-5.478 -1.88,1.046 2.616,3.104 2.721,4.919 0.314,5.267 -0.452,10.359 -1.986,15.45 -35.788,24.626 -79.842,20.754 -125.045,25.288 m 164.599,-50.122 0.382,0.037 0.278,0.314 0.49,-0.034 -0.315,0.347 h -0.556 c -0.072,-0.142 -0.702,-0.524 -0.279,-0.664 m -10.744,-2.616 c 0.872,-1.707 7.393,0.593 5.615,1.393 -1.711,0.804 -6.279,-0.17 -5.615,-1.393 m -153.821,49.216 -0.664,-0.558 c -0.17,-0.629 0.072,-1.5 0.456,-2.023 l 0.281,0.243 c -0.179,0.349 -0.423,1.081 -0.351,1.5 0.07,0.313 0.697,0.838 0.278,0.838 M -121.693,64.04 c 0.521,0.245 1.186,1.288 1.533,1.778 -0.694,-0.279 -1.22,-1.117 -1.533,-1.778 m -0.805,-1.811 0.247,0.169 c 0.136,0.246 0.414,0.909 0.312,1.185 z m -0.311,-4.711 c -0.629,1.291 -0.246,3.102 0.21,4.358 -0.736,-1.184 -1.083,-3.136 -0.21,-4.358" /></g></g></g><g
       id="g26"><g
         clip-path="url(#clipPath32)"
         id="g28"><g
           transform="translate(282.5312,322.2144)"
           id="g34"><path
             id="path36"
             style="fill:#ffffff;fill-opacity:1;fill-rule:nonzero;stroke:none"
             d="m 0,0 c -0.297,0.633 -0.524,1.031 -1.241,1.239 0.024,0.305 0.037,1.297 0,2.068 C -0.464,1.998 -0.289,1.097 0,0 m -10.748,13.644 c 0.251,0.173 0.616,0.807 0.827,1.239 0.067,-0.008 1.668,0.009 2.066,0 v -0.826 c -1.013,-0.007 -1.897,-0.261 -2.893,-0.413 m 7.441,-7.029 c 0.164,0.93 -0.496,0.97 0.414,2.067 -0.73,0.508 -1.306,0.744 -2.067,0.827 0.137,0.276 0.275,0.552 0.412,0.827 1.677,-1.141 1.142,-1.935 1.241,-3.721 m -6.2,-1.24 c -0.562,0.383 -0.895,1.085 -0.827,1.653 -0.138,-0.413 0,-0.55 0.413,-0.413 0.108,0.435 -0.25,1.147 0.414,2.067 1.899,-1.458 0.718,-1.855 0,-3.307 M -1.241,4.96 C -1.269,5.054 -1.669,6.274 -2.067,7.028 -1.638,6.41 -1.2,4.818 -1.241,4.96 m -7.44,-1.653 c -0.097,0.33 0.853,0.408 -0.414,0.414 0.552,0 0.552,0 0,0 0.241,1.07 0.435,0.993 0.828,1.654 -0.374,-0.179 -0.512,-0.455 -0.414,-0.829 0.138,0.276 0.276,0.553 0.414,0.829 0.207,-1 -0.328,-1.723 -0.414,-2.068 m 2.482,8.269 c 0.093,0.128 0.564,1.977 0.825,2.481 -0.639,0.397 -1.473,0.956 -2.481,1.24 2.921,-0.556 3.221,-2.258 1.656,-3.721 M 2.065,-2.067 C 2.561,-1.29 3.068,-1.24 2.48,-0.414 H 3.308 C 3.317,-1.835 2.704,-1.065 2.065,-2.067" /></g><g
           transform="translate(249.459,318.9058)"
           id="g38"><path
             id="path40"
             style="fill:#ffffff;fill-opacity:1;fill-rule:nonzero;stroke:none"
             d="m 0,0 c -0.239,-0.029 1.433,0.206 2.068,0.414 0.735,4.475 7.546,3.688 10.335,4.134 1.185,-0.161 1.026,-0.442 2.479,0 2.352,-2.314 6.729,-3.673 9.509,-5.374 -0.568,0.097 -0.568,-0.041 0,-0.414 -0.232,1.573 -0.017,0.192 -0.826,1.24 0.398,-0.385 1.22,-1.049 1.652,-1.652 -0.758,0.475 -0.521,0.648 -0.412,0.412 0.674,-0.718 -0.002,0.022 0.412,0 0.476,-0.875 0.305,-0.893 0.414,-1.239 1.07,-0.116 0.308,0.546 1.242,-0.415 0.568,-0.097 0.568,0.041 0,0.415 1.365,-0.296 1.57,-0.655 2.893,-0.828 -0.318,-1.13 -0.392,-0.409 -0.414,-1.24 0.799,0.169 1.283,-0.122 1.653,-0.413 0.276,-0.009 1.865,-0.529 3.308,-1.655 -1.016,-0.339 -2.699,-1.117 -3.72,-1.24 0.063,0.965 0.406,0.419 0.412,0.413 -2.809,-0.299 -5.955,-0.027 -8.681,-0.413 5.682,3.486 -2.653,2.635 -2.066,6.615 -2.7,-0.359 -5.223,0.728 -5.788,2.068 C 13.663,0.658 12.527,1.223 12.403,1.242 11.364,0.629 11.722,0.702 9.096,1.655 9.728,1.852 10.523,1.887 11.162,2.069 8.472,4.238 3.314,0.707 1.24,-0.826 1.325,-0.652 1.826,-0.187 1.654,0 0.719,-0.413 0.375,-0.323 0,0 M 6.616,-2.066 C 6.023,-0.889 4.981,-0.576 7.442,0 7.88,-1.525 6.977,-1.22 6.616,-2.066" /></g><g
           transform="translate(291.2124,308.1567)"
           id="g42"><path
             id="path44"
             style="fill:#ffffff;fill-opacity:1;fill-rule:nonzero;stroke:none"
             d="M 0,0 C -1,4.577 3.22,2.704 5.789,2.48 7.334,1.3 4.979,1.722 7.854,1.242 7.716,0.828 7.854,0.69 8.269,0.828 7.616,0.643 7.462,0.397 6.615,0.414 9.262,0.376 11.598,-1.588 9.096,-3.307 6.737,-0.771 1.609,-2.761 0,-5.376 -1.196,-3.371 -1.222,-1.122 0,0" /></g><g
           transform="translate(291.2124,310.6367)"
           id="g46"><path
             id="path48"
             style="fill:#ffffff;fill-opacity:1;fill-rule:nonzero;stroke:none"
             d="m 0,0 c 0.133,-1.539 0.605,-2.198 -0.825,-2.894 0.235,-1.116 -0.4,-1.754 0,-3.307 -3.136,1.243 -6.104,-0.094 -8.684,1.241 2.597,1.624 4.07,-0.175 7.442,0.825 -1.192,1.936 -0.969,3.032 -3.307,3.723 V 0.414 C -2.619,0.743 -1.095,-0.104 0,0 m -3.721,-3.721 c -0.644,0.35 -1.113,0.273 -1.653,0.827 0.808,-0.015 1.016,-0.481 1.653,-0.827" /></g><g
           transform="translate(272.6104,303.1943)"
           id="g50"><path
             id="path52"
             style="fill:#ffffff;fill-opacity:1;fill-rule:nonzero;stroke:none"
             d="M 0,0 C -0.995,0.288 -2.363,1.095 -3.307,1.655 -1.841,3.651 1.524,2.514 3.307,0.828 1.866,0.72 0.397,0.06 0,0" /></g><g
           transform="translate(306.0937,304.0225)"
           id="g54"><path
             id="path56"
             style="fill:#ffffff;fill-opacity:1;fill-rule:nonzero;stroke:none"
             d="M 0,0 C -2.445,2.49 2.917,2.06 2.894,2.067 3.556,1.653 3.802,1.821 4.55,1.654 3.766,-0.112 2.233,-0.143 0,0" /></g><g
           transform="translate(285.4248,315.1851)"
           id="g58"><path
             id="path60"
             style="fill:#ffffff;fill-opacity:1;fill-rule:nonzero;stroke:none"
             d="M 0,0 C 0.847,0.552 1.321,1.289 2.481,1.241 1.807,-0.262 1.211,0.5 0,0" /></g><g
           transform="translate(323.8604,300.686)"
           id="g62"><path
             id="path64"
             style="fill:#ffffff;fill-opacity:1;fill-rule:nonzero;stroke:none"
             d="M 0,0 C -0.006,-0.023 -0.514,0.515 -0.399,0.4 0,0.267 0.134,0.401 0,0.801 0.718,0.417 -0.264,0.584 0.399,0.801 0.771,-0.369 0.148,0.576 0,0 M 0.399,2.001 C 0.11,2.497 -0.256,2.525 0,2.802 0.085,2.877 0.021,2.648 0.399,2.001" /></g><g
           transform="translate(330.2637,286.6758)"
           id="g66"><path
             id="path68"
             style="fill:#ffffff;fill-opacity:1;fill-rule:nonzero;stroke:none"
             d="M 0,0 C -0.321,0.522 -0.653,1.063 0,0" /></g><g
           transform="translate(324.6611,294.2812)"
           id="g70"><path
             id="path72"
             style="fill:#ffffff;fill-opacity:1;fill-rule:nonzero;stroke:none"
             d="M 0,0 C 0.112,1.153 -0.59,0.784 0,1.602 0.894,0.803 0.071,0.73 0,0" /></g><g
           transform="translate(322.6611,282.6733)"
           id="g74"><path
             id="path76"
             style="fill:#ffffff;fill-opacity:1;fill-rule:nonzero;stroke:none"
             d="M 0,0 C 0.353,0.354 0.152,0.689 0.8,0.801 0.894,0.536 0.561,0.562 0,0" /></g><g
           transform="translate(325.0615,297.8843)"
           id="g78"><path
             id="path80"
             style="fill:#ffffff;fill-opacity:1;fill-rule:nonzero;stroke:none"
             d="M 0,0 C 0.021,0.095 -0.773,0.435 0,1.2 1.204,0.13 0.09,0.413 0,0 m -1.201,-0.8 c 0.073,0.517 0,1.076 0,1.6 0.874,-0.725 0.092,-0.954 0,-1.6" /></g><g
           transform="translate(326.2617,291.479)"
           id="g82"><path
             id="path84"
             style="fill:#ffffff;fill-opacity:1;fill-rule:nonzero;stroke:none"
             d="M 0,0 C -0.306,0.282 0.275,0 -0.8,0 -0.84,1.051 -0.673,0.22 -1.2,1.602 -0.633,1.578 -0.569,1.104 0,1.201 -0.243,1.151 -0.311,0.496 0,0" /></g><g
           transform="translate(321.0586,301.4868)"
           id="g86"><path
             id="path88"
             style="fill:#ffffff;fill-opacity:1;fill-rule:nonzero;stroke:none"
             d="M 0,0 C -0.038,0.51 -0.907,0.638 0,0.8 0.541,0.24 -0.009,0.119 0,0 m 0.4,-0.4 c 0,0.533 0,0.533 0,0" /></g><g
           transform="translate(325.8633,289.0776)"
           id="g90"><path
             id="path92"
             style="fill:#ffffff;fill-opacity:1;fill-rule:nonzero;stroke:none"
             d="M 0,0 C -0.115,0.433 -0.495,1.862 0,0" /></g><g
           transform="translate(324.6611,286.6758)"
           id="g94"><path
             id="path96"
             style="fill:#ffffff;fill-opacity:1;fill-rule:nonzero;stroke:none"
             d="M 0,0 C 0.202,0.67 -0.388,1.049 0.4,1.201 0.59,0.45 0.052,0.173 0,0 m 0.4,-0.4 c 0,-0.534 0,-0.534 0,0 m -0.801,-0.8 c 0,-0.535 0,-0.535 0,0 m 0,-0.401 c -0.533,0 -0.533,0 0,0 m -0.4,0 c 0,-0.534 0,-0.534 0,0" /></g></g></g></g></svg>