<?xml version="1.0" encoding="UTF-8" standalone="no"?>
<svg
   xmlns:dc="http://purl.org/dc/elements/1.1/"
   xmlns:cc="http://creativecommons.org/ns#"
   xmlns:rdf="http://www.w3.org/1999/02/22-rdf-syntax-ns#"
   xmlns:svg="http://www.w3.org/2000/svg"
   xmlns="http://www.w3.org/2000/svg"
   viewBox="0 0 800 533.33331"
   height="533.33331"
   width="800"
   xml:space="preserve"
   version="1.1"
   id="svg2"><metadata
     id="metadata8"><rdf:RDF><cc:Work
         rdf:about=""><dc:format>image/svg+xml</dc:format><dc:type
           rdf:resource="http://purl.org/dc/dcmitype/StillImage" /></cc:Work></rdf:RDF></metadata><defs
     id="defs6" /><g
     transform="matrix(1.3333333,0,0,-1.3333333,0,533.33333)"
     id="g10"><path
       id="path12"
       style="fill:#d6372c;fill-opacity:1;fill-rule:nonzero;stroke:none"
       d="M 0,0 600,0 600,400 0,400 0,0 Z" /><g
       transform="translate(0,399.9996)"
       id="g14"><path
         id="path16"
         style="fill:#ffffff;fill-opacity:1;fill-rule:nonzero;stroke:none"
         d="m 0,0 200,-200 400,0 L 600,0 0,0 Z" /></g><path
       id="path18"
       style="fill:#2c4997;fill-opacity:1;fill-rule:nonzero;stroke:none"
       d="m 0,200 200,0 0,200 -200,0 0,-200 z" /><g
       transform="translate(100,350)"
       id="g20"><path
         id="path22"
         style="fill:#ffffff;fill-opacity:1;fill-rule:nonzero;stroke:none"
         d="M 0,0 -15.451,-47.553 8.326,-55.278 0,0 Z" /></g><g
       transform="translate(100,350)"
       id="g24"><path
         id="path26"
         style="fill:#ffffff;fill-opacity:1;fill-rule:nonzero;stroke:none"
         d="M 0,0 15.451,-47.553 -8.326,-55.278 0,0 Z" /></g><g
       transform="translate(147.5527,315.4507)"
       id="g28"><path
         id="path30"
         style="fill:#ffffff;fill-opacity:1;fill-rule:nonzero;stroke:none"
         d="M 0,0 -50,0 -50,-25 0,0 Z" /></g><g
       transform="translate(147.5527,315.4507)"
       id="g32"><path
         id="path34"
         style="fill:#ffffff;fill-opacity:1;fill-rule:nonzero;stroke:none"
         d="M 0,0 -40.451,-29.389 -55.146,-9.164 0,0 Z" /></g><g
       transform="translate(52.4473,315.4507)"
       id="g36"><path
         id="path38"
         style="fill:#ffffff;fill-opacity:1;fill-rule:nonzero;stroke:none"
         d="M 0,0 40.451,-29.389 55.146,-9.164 0,0 Z" /></g><g
       transform="translate(52.4473,315.4507)"
       id="g40"><path
         id="path42"
         style="fill:#ffffff;fill-opacity:1;fill-rule:nonzero;stroke:none"
         d="M 0,0 50,0 50,-25 0,0 Z" /></g><g
       transform="translate(129.3892,259.5493)"
       id="g44"><path
         id="path46"
         style="fill:#ffffff;fill-opacity:1;fill-rule:nonzero;stroke:none"
         d="M 0,0 -15.451,47.553 -39.227,39.827 0,0 Z" /></g><g
       transform="translate(129.3892,259.5493)"
       id="g48"><path
         id="path50"
         style="fill:#ffffff;fill-opacity:1;fill-rule:nonzero;stroke:none"
         d="M 0,0 -40.451,29.389 -25.756,49.615 0,0 Z" /></g><g
       transform="translate(70.6108,259.5493)"
       id="g52"><path
         id="path54"
         style="fill:#ffffff;fill-opacity:1;fill-rule:nonzero;stroke:none"
         d="M 0,0 40.451,29.389 25.756,49.615 0,0 Z" /></g><g
       transform="translate(70.6108,259.5493)"
       id="g56"><path
         id="path58"
         style="fill:#ffffff;fill-opacity:1;fill-rule:nonzero;stroke:none"
         d="M 0,0 15.451,47.553 39.227,39.827 0,0 Z" /></g></g></svg>