<?xml version="1.0" encoding="utf-8"?>
<!-- Generator: Adobe Illustrator 19.1.0, SVG Export Plug-In . SVG Version: 6.00 Build 0)  -->
<svg version="1.1" id="Capa_1" xmlns="http://www.w3.org/2000/svg" xmlns:xlink="http://www.w3.org/1999/xlink" x="0px" y="0px"
	 viewBox="0 0 600 400" style="enable-background:new 0 0 600 400;" xml:space="preserve">
<style type="text/css">
	.st0{fill:#236D00;}
	.st1{fill:#FFFFFF;}
	.st2{fill:#B50000;}
	.st3{fill-rule:evenodd;clip-rule:evenodd;fill:#9D7324;}
	.st4{fill-rule:evenodd;clip-rule:evenodd;fill:#F3D46D;}
	.st5{fill-rule:evenodd;clip-rule:evenodd;fill:#7C7D80;}
	.st6{fill-rule:evenodd;clip-rule:evenodd;fill:#141512;}
	.st7{fill-rule:evenodd;clip-rule:evenodd;fill:#953238;}
	.st8{fill-rule:evenodd;clip-rule:evenodd;fill:#3F6F3E;}
	.st9{fill-rule:evenodd;clip-rule:evenodd;fill:#977925;}
	.st10{fill-rule:evenodd;clip-rule:evenodd;fill:#63A7DE;}
</style>
<rect class="st0" width="200" height="400"/>
<rect x="200" class="st1" width="200" height="400"/>
<rect x="400" class="st2" width="200" height="400"/>
<g>
	<g>
		<path class="st3" d="M286.4,141.8c-1.6-1.5-4.3-2.2-6.3-2.6c-0.1,0-0.3,0.3-0.5,0.7c1.2,0.2,5,1.5,6.5,2.5
			C286.4,142.5,286.4,141.9,286.4,141.8L286.4,141.8z"/>
		<path class="st3" d="M287.4,152.1c0.1-2.2-0.1-3.5,0.2-4.9c0,0-0.6,0.5-0.9,0.5c0.2,0.7,0.2,3.3-0.2,4.4
			C286.5,152.3,287.4,152.1,287.4,152.1L287.4,152.1z"/>
		<path class="st3" d="M284.4,176.2c-0.7-7.1-0.5-7.3-0.3-10.3c0,0,0.7,0.1,1.6,0c-1.2,1.2-0.1,9.5,1,11.3
			C286.6,177.3,285.5,177.1,284.4,176.2L284.4,176.2z"/>
		<path class="st3" d="M293,174.9c-1.1-6.8-0.7-6.7-0.5-9.5c0,0,0.6,0,1.5-0.1c-1.2,1.1-0.6,6.6,0.3,8.4
			C294.3,173.7,294.1,175.7,293,174.9L293,174.9z"/>
		<path class="st3" d="M299.7,170.1c-0.8-4.7-0.8-4.5-0.8-6.4c0,0,0.3-0.2,0.9-0.2c-0.8,0.8,0.5,3.3,1,6.4
			C301,170.8,300.8,171,299.7,170.1L299.7,170.1z"/>
		<path class="st3" d="M304.4,162.6c-0.9-2-0.8-2-1.4-2.6c0,0-0.2,0.1-0.5,0.3c0.7-0.1,0.7,1.3,1.2,2.6
			C304,163.3,304.1,163.3,304.4,162.6L304.4,162.6z"/>
		<path class="st3" d="M283.3,162.2c0.7-2.1,1.2-3.8,1.7-5.1c0,0-0.6,0-0.9-0.1c0,0.8-1.4,3.9-1.6,5.1L283.3,162.2L283.3,162.2z"/>
		<path class="st3" d="M279.2,162c0.8-2,1.6-3.8,2.3-5c0,0-0.7,0-1-0.2c0,0.8-1.7,3.7-2.1,4.9C278.4,161.9,279.2,162,279.2,162
			L279.2,162z"/>
		<path class="st3" d="M290.1,161.9c0.3-3.1,0.4-5.1,0.6-7c0,0-0.6,0.7-1,0.7c0,1.1-0.7,5-0.7,6.6
			C288.9,162.3,290,161.9,290.1,161.9L290.1,161.9z"/>
		<path class="st3" d="M293.9,148.7c-1-2.9-1.7-4.5-2.2-6.3c0,0-0.2,0.9-0.6,1c0.6,0.9,1.6,4.2,1.9,5.7
			C293.1,149.2,293.8,148.7,293.9,148.7L293.9,148.7z"/>
		<path class="st3" d="M297.6,159.8c-0.1-3.7-0.3-6-0.2-8.3c0,0-0.5,0.9-0.8,0.9c0.3,1.3,0.3,5.7,0.1,7.7
			C296.6,160.2,297.5,159.8,297.6,159.8L297.6,159.8z"/>
		<path class="st3" d="M314.9,140.7c3.4,1.6,5.5,2.4,7.6,3.6c0,0-0.6-0.8-0.4-1.1c-1.3-0.3-5.2-2.2-6.9-3.3
			C315,139.7,315,140.7,314.9,140.7L314.9,140.7z"/>
		<path class="st3" d="M328.9,134.8c2.9-0.8,20.3,18.1,23.2,23.1c0,0,1.2-0.3,1.4-0.6c-1.1-3.2-19.4-23.7-23.5-23.6
			C330,133.7,328.9,134.7,328.9,134.8L328.9,134.8z"/>
		<path class="st3" d="M324.2,151c1.4-0.4,8.7,6,10.1,8.3c0,0,1.4,0.2,0.9-0.3c-0.6-1.6-8.5-9.1-10.4-9.1L324.2,151L324.2,151z"/>
		<path class="st3" d="M321.3,158.1c1,0.2,4.3,3.1,6.1,4.6c0,0,1.4,0.2,0.8-0.4c-0.8-1.1-5.1-5.5-6.5-5.8
			C321.7,156.5,321.4,158.1,321.3,158.1L321.3,158.1z"/>
		<path class="st3" d="M317.2,164.1c0.9,0.2,1.3,1,3.1,2.4c0,0,1.4,0.2,0.9-0.4c-0.9-1.1-2.1-3.1-3.5-3.4L317.2,164.1L317.2,164.1z"
			/>
		<path class="st3" d="M311.9,169.4c0.9,0.2,1.1,1.1,2.3,2.4c0,0,0.3-0.5,0.7-1.1c-0.9-1.1-1.1-1.5-2.1-2.4L311.9,169.4L311.9,169.4
			z"/>
		<path class="st3" d="M304.5,173.1c0.9,0.2,3.5,5,4.8,6.4c0,0,0.2-0.5,0.5-1.1c-0.8-1.1-4.2-6.4-5.1-7.2L304.5,173.1L304.5,173.1z"
			/>
		<path class="st3" d="M299,177.9c0.9,0.2,4,5.7,5.3,7.2c0,0,0.2-0.5,0.6-1.1c-0.9-1.1-3.9-6.2-4.8-6.9L299,177.9L299,177.9z"/>
		<path class="st3" d="M310.3,186.4c0.9,0.2,3.5,5.2,4,7.4c0,0,0.3-0.2,0.7-0.8c-0.4-1.3-2.8-7.2-3.8-7.8
			C310.3,184.6,309.7,185.9,310.3,186.4L310.3,186.4z"/>
		<path class="st3" d="M303.2,190.8c0.7,0,4.3,4.4,5.1,6.5c0,0,0.4,0.1,0.7-0.5c-0.2-1.3-3.8-6.2-4.6-6.8
			C303.4,189.4,302.4,189.8,303.2,190.8L303.2,190.8z"/>
		<path class="st3" d="M311.8,203.3c0.5,0.1,2.3,2.7,2.8,4c0,0,0.5,0.1,0.7-0.3c-0.2-0.8-1.6-3.5-2.2-3.8
			C312.5,202.8,311.3,202.8,311.8,203.3L311.8,203.3z"/>
		<path class="st3" d="M307.3,204.2c0.3,0,1.9,2,2.4,3.3c0,0,0.6,0,0.8-0.3c-0.2-0.9-2.1-3.4-2.6-3.8
			C307.3,203.1,307.4,203.7,307.3,204.2L307.3,204.2z"/>
		<path class="st3" d="M297.3,193.5c0.9,0.8,4.5,4.1,6.7,6.9c0,0-0.1,0.3,0.2-0.2c-1.5-2.7-5.1-6.3-5.9-6.9
			C295.9,191,296.4,191.3,297.3,193.5L297.3,193.5z"/>
		<path class="st3" d="M314.8,178.2c0.9,0.2,3.3,5.5,4.3,9.2c0,0,0.2-0.4,0.4-1c-0.3-1.9-3.4-8.8-4.3-9.5
			C315.2,176.9,314.8,178.1,314.8,178.2L314.8,178.2z"/>
		<path class="st3" d="M291.9,181c0.9,0.2,4.3,5.6,5.5,7c0,0,0.5-0.2,0.8-0.7c-0.9-1.1-4.6-6-5.5-6.6L291.9,181L291.9,181z"/>
		<path class="st3" d="M317,149.1c2,1.3,3.4,2.3,3.4,2.4c-0.2,0.2,0.3-0.7,0.4-1.1c-0.7-0.2-2.9-1.2-3.8-2.1
			C316.8,148.2,317,149.1,317,149.1L317,149.1z"/>
		<path class="st3" d="M314.3,156.7c2,1.2,2,1.3,2,1.3c-0.2,0.2,0.5-0.6,0.6-1c-0.7-0.2-1-0.7-2-1.3
			C314.9,155.7,314.3,156.6,314.3,156.7L314.3,156.7z"/>
		<path class="st3" d="M310.1,162.5c2,1.2,1.7,1.4,1.7,1.4c-0.1,0.2,0.6-0.6,0.7-1c-0.6-0.5-0.7-0.7-1.8-1.3
			C310.7,161.6,310.1,162.4,310.1,162.5L310.1,162.5z"/>
		<path class="st3" d="M297.7,145.7c-1.8-2.6-3.5-4.7-4.6-6.4c0,0,0,0.6-0.3,0.7c0.9,0.7,3.4,4.8,4.2,6.3
			C297,146.5,297.7,145.7,297.7,145.7L297.7,145.7z"/>
		<path class="st3" d="M265.3,148.9c-1,0.2-1.6-0.3-1.9-0.2c0,1.3-0.7,1.5-2.8,1.1c-0.8,0.3-1.7,1.4-2,2c-2,3.6,0.9,8.1,7.1,6.9
			c-5.1-3.8-2.2-7.7,3.6-7c0-0.2,2.4-1.3,2.4-1.8c-0.3,0-2.9-0.5-3.9-0.5c-0.5,0,0.7,1.1,0.2,1.1c-3.5,0.1-8.8,2.4-5.7,6.4
			c0.1,0.2-4-0.2-2.7-4.3c0.2-0.7,0.8-1.7,1.4-1.7c0.9,0,2.4-0.1,2.6-0.3L265.3,148.9L265.3,148.9z"/>
		<path class="st3" d="M262.6,147.4c10.1,1.3,9.3,0.4,10.7,0.3c1,0,3.1,0.1,4.5,2.2c0.7,1-4,3.7-6.6,4c2.3-2,4.7-3.2,4-3.9
			c-0.8-0.3-2.4-0.7-3.3-0.1c-0.8,0.6-2.5-0.2-4-0.4c-0.7-0.2-1.6-0.3-2.5-0.3c-0.7,0-1.9-0.3-2.9-0.4
			C261.8,148.7,262.3,148.7,262.6,147.4L262.6,147.4z"/>
		<path class="st3" d="M267.9,135.8c0,1-0.4,4.7-1.5,5.5c-1.1,1.5-3.4,1.1-3.4,4.7c1.5,1.1,2.8,0.7,4.1,0.3l-0.1-0.9
			c-2.6,0.1-3.3,0-2.2-1.3c-0.1-0.5,1.8-1,3-3.3c-0.1,1.1-1.6,4.4-1.6,4.6c0.7,0.1,0.7,0.1,0.8,0.1c0.2,0,0.8-2.5,1.3-3.8
			c0.1-0.3,0.6-0.6,0.6-0.7C269.3,139.9,269.2,137.8,267.9,135.8L267.9,135.8z"/>
		<path class="st3" d="M268.6,142.9c0.3,0.1,0.2-1.6,0.7-1.1c1.5,1.6,1.9,3.9-1.8,5.2C269.3,145.2,269.8,143.7,268.6,142.9
			L268.6,142.9z"/>
		<path class="st3" d="M272.4,137.2c-0.2-0.2,0.7-0.6,0.7-1c-0.2-1.9-2.9-3.8-2.8-3.3c0.2,1.9,0.3,3.9-0.2,6.4
			c-0.1-0.3,0.8-0.4,1.1-0.9c0.6-1.2,0.3-1.9,0.3-3C271.5,135.2,272.3,135.9,272.4,137.2L272.4,137.2z"/>
		<path class="st3" d="M278.9,136.6c-0.2-0.2,0.5,1.5,0.8,1.1c3.4-4.2,0.9-7-0.9-7.2c-1.6-0.2-0.2,2.5-2.2,4.4
			c0.1-0.3,0.2,1.1,0.7,0.8c1.1-0.8,1.2-1.6,1.8-2.6C279.2,133,280,134.5,278.9,136.6L278.9,136.6z"/>
		<path class="st3" d="M269.3,141c0.2,0.1,0.7,1.1,1.1,0.9c4.5-2.8,6.9-5.9,3.6-10.9C274.6,135.8,274.4,138,269.3,141L269.3,141z"/>
		<path class="st3" d="M271.2,144.4c0-0.3-0.7,1.1,0.2,1.1c2.6-0.2,8.7-6,6.9-7.3c-0.2-0.2-0.3-0.7-0.4-0.7c-1.7,0-4.6,3.6-6.9,5.1
			c0.2-0.2-0.1,0.9,0.4,0.7c2-0.6,5.1-4.4,5.8-4C277.9,139.7,273.3,143.6,271.2,144.4L271.2,144.4z"/>
		<path class="st3" d="M282.5,135.4c0.1,0.2-0.9-1.1-0.2-1.1c1.8,0,6,2.4,8.1,2c0.6-0.1,1.8,0.4,1.8,1.1c0.1,0.2-1.1,2.7-1.4,2.7
			c-1.9,0.2-6.4-2.1-9-2.9c0.3,0.2-0.5-0.8,0.2-0.8c2,0.2,7.2,2.7,7.9,2.3c0.1,0,0.6-0.1,0.3-0.2
			C289.1,137.4,284.3,135.5,282.5,135.4L282.5,135.4z"/>
		<path class="st3" d="M298.1,134.8c0.2,0.3-0.7-0.5-0.7-0.8c0.1-0.9,2.9-0.1,3.3-0.2c0.2-0.1,0.3,0.1,0.7,0.3c0,0.1,1.9,3,1.6,3.5
			c-0.5,0.9-2,0.3-3,0.6c0.2,0.1-0.9-1-0.7-1c1.2-0.1,2.4,0.2,2.4-0.3c0-0.2-0.7-2-1.1-2.1C299.5,134.4,298.9,134.7,298.1,134.8
			L298.1,134.8z"/>
		<path class="st3" d="M317.2,127.5c0.3,0.2-0.7-0.6-1.1-0.5c-0.9,0.2,0.6,2.9,0.5,3.2c-0.1,0.2,0.4,0.4,0.7,0.7c0,0,2.9,1.3,3.3,1
			c0.8-0.6,0.3-2,0.4-3c0.1,0.2-1.5-0.7-1.5-0.5c0.2,1.2,0.4,2.1-0.1,2.2c-0.2,0-1.5-0.2-1.6-0.4
			C317.4,129.1,317.2,128.3,317.2,127.5L317.2,127.5z"/>
		<path class="st3" d="M309.2,125.9c0.3,0.1-1.5-0.5-1.9-0.3c-0.7,0.4,3.2,3.1,3.1,3.4c0,0.1,0.2,0.3,0.7,0.4c0,0,3.5,0.8,3.8,0.4
			c0.7-0.8-0.6-2.1-0.7-3.1c0.1,0.1-1.6-0.5-1.5-0.2c0.5,1.1,0.7,1.7,0.2,1.9c-0.2,0.1-1.5,0.2-1.6,0
			C310.5,127.5,309.4,126.7,309.2,125.9L309.2,125.9z"/>
		<path class="st3" d="M300.8,140.3c0.2,0.4-0.2-1,0-1c1.2,0.1,2.3,0,2.6-0.2c0.2-0.1,0.5,0.2,0.7,0.7c0.2,0.7,1.6,4.2,0.9,5.1
			c-0.9,1-2.7,0.2-3.6,0.3c0.2,0.1-0.7-0.9,0.1-1.1c1.1-0.2,2.4,0,2.5-0.3c0.2-0.6-0.5-2.8-0.9-2.9
			C302.1,140.3,301.6,140.3,300.8,140.3L300.8,140.3z"/>
		<path class="st3" d="M301.7,147.4c0.2,0.4,0.2-1.1,0.3-1.1c1.1-0.2,2.4-0.1,2.8,0c0.9,0.2,1.2,1.1,1.3,1.6
			c0.2,1.6,0.2,1.5-0.4,2.5c-0.7,1.1-1.4,2.5-2.3,2.9c0.2,0.1-0.4-1.5,0.1-2.1c0.7-1,1.1-1.6,1.1-1.9c0.4-1.2-0.4-1.7-0.8-1.8
			C302.8,147.3,302.4,147.3,301.7,147.4L301.7,147.4z"/>
		<path class="st3" d="M291,131.8c0.5,0.2-1.8-0.7-1.8-1c0.1-0.6,4.2,0.4,3.8-0.6c-0.2-0.2,0.7-0.2,1.8,0.4c0.2,0.1,2.9,1.4,2.9,1.9
			c0,0.7-0.9,0.8-2.3,0.9c0.3,0.1-1.2-0.1-1.4-0.5c-0.2-0.7,2.7,0.2,2.3-0.3c0,0-1.4-1.1-2.3-1.1C293.2,131.5,291.3,131.3,291,131.8
			L291,131.8z"/>
		<path class="st3" d="M280.8,138.7c0.1,0.2-0.1-0.7,0.5-0.8c0.9-0.2,9,3.1,8.3,4.5c0,0-0.7,1.4-1.6,2.4c-1.6,1.6-6-2.8-8.2-3.5
			c0.3,0.2-0.3-0.8,0.2-0.7c2,0.2,6.6,2.7,7.3,3c0.7,0.2,1.1-1.2,0.9-1.5C286.9,140.8,283,138.7,280.8,138.7L280.8,138.7z"/>
		<path class="st3" d="M280.1,143c0.1,0.2-0.2-0.5,0.2-0.7c0.8-0.2,6.4,2.5,5.6,3.9c0,0-0.9,1.9-2,2.4c-0.8,0.4-2-2.4-3.3-3.3
			c0.3,0.2-0.2-2,0.3-1.1c0.7,1.2,1.9,2.2,2.5,2.4c0.5,0.2,1.1-0.8,1-0.9C283.3,144.8,281.9,143.8,280.1,143L280.1,143z"/>
		<path class="st3" d="M279.8,146.8c-0.1,0.2,0.1-0.6,0.5-0.5c0.7,0.2,2.7,2.9,1.8,3.6c0,0-1.1,1.2-2.1,1.3c-0.7,0.1-1-2.1-1.6-3.1
			c0.2,0.2,0.8-1.5,0.9-0.8c0.2,1.1,0.5,0.9,1.1,2.1c0.2,0.3,0.3-0.1,0.3-0.5C280.7,147.6,280.8,147.9,279.8,146.8L279.8,146.8z"/>
		<path class="st3" d="M287,128.4c0.2,0.1-0.3-0.3-0.1-0.6c0.3-0.4,3.3-0.8,3.4,0.2c0,0,0.4,1.4,0,2.1c-0.2,0.5-2-0.1-2.9-0.1
			c0.2,0-0.8-1.3-0.2-1.1c0.9,0.3,0.9,0.1,2,0.2c0.4,0,0.2-0.2-0.2-0.5C288.1,128.1,288.4,128.2,287,128.4L287,128.4z"/>
		<path class="st3" d="M282.5,150.9c-0.2,0.2,0.7-1.3,1-1c0.5,0.7,0.8,3.8-1.9,6c-0.4,0.4-2.6,0.7-2.9-0.5c-0.2-0.8,0.3-2.2,2-3.9
			c-0.1,0.3,1.4-1.3,1-0.6c-0.7,1.1-1,2-1.4,3.4c-0.1,0.3,0.4,0.9,1.2-0.3C282.3,152.7,282.2,153,282.5,150.9L282.5,150.9z"/>
		<path class="st3" d="M288.3,146.3c-0.2,0.2,0.9-1.6,1.1-1.1c0.4,1.6,1.2,6.9-0.5,9.4c-0.6,0.7-3.7,1.4-4.5-0.1
			c-0.5-0.8,0.2-3.3,0.7-5.5c0,0.4,1.4-0.9,1.1-0.2c-0.5,1.3-0.8,3.1-0.3,4.5c0.1,0.2,1.6,0.7,2.2-0.5
			C288.7,151.3,288.5,148.6,288.3,146.3L288.3,146.3z"/>
		<path class="st3" d="M282.7,166.4c0.2,0.4-1-0.6-1.2,0.3c-1.1,3.9-0.3,9.1,2,12.7c0.7,1.1,4.2,2.4,5.7,0.6
			c1.1-1.3-0.1-5.1-0.9-8.7c0,0.1,0.2-3.2,0-4c-0.3-0.9-1.4,0.1-1.5,0.2c-0.2,0.2-0.2,3.3-0.3,3.6c-0.2,3.1,2,4,1.1,7.8
			c0,0-2.8,0-3.6-1.2C282.1,174.8,282.4,170,282.7,166.4L282.7,166.4z"/>
		<path class="st3" d="M277.1,165.3c0.5-0.3,0.2-2.4-1.4,0.5c-2.4,4.5,1.9,8.2,2.1,12.6c0.1,1.2,2.1,3.2,3.4,1.1
			c1.1-2-1.1-4.9-1.7-8.8c0,0.2,0.8-3.8,0.6-4.7c-0.2-0.8-1.1-0.5-1.2-0.4c-0.2,0.2-0.7,4-0.8,4.2c-0.2,3.1,2.2,4.6,1.6,8.4
			c0,0-1,0.6-1-0.9C278.8,174.7,273.6,171.2,277.1,165.3L277.1,165.3z"/>
		<path class="st3" d="M291.3,165.6c0.2,0.4-1-0.6-1.2,0.3c-1.1,3.8-0.3,8.7,2,12.2c0.7,1.1,4.1,0.7,4.5-0.9c0.7-2.2,0.2-3.4-0.6-7
			c0,0.2,0.3-4.1,0-4.7c-0.3-0.7-1.1-0.2-1.2-0.1c-0.2,0.2,0,2.9-0.2,3.9c-0.4,2.5,0.7,5.2,0.7,7.2c0,0-2,1.1-2.8-0.1
			C290.7,173.5,291,168.9,291.3,165.6L291.3,165.6z"/>
		<path class="st3" d="M298.4,164.2c0.2,0.2-1-0.5-1.3,0.2c-1.1,3.2-0.3,7.5,2,10.4c0.7,0.8,3.3-0.6,3.8-1.8
			c0.8-1.7,0.9-2.3,0.1-5.1c0,0.1-1.6-4.8-2-5.4c-0.3-0.5-0.8,0.2-0.9,0.3c-0.2,0.2,1,3.3,1.1,4c0.5,2.1,1,2.9,0.6,4.7
			c-0.2,0.3-1.6,1.8-2,0.8C298.6,169.8,298,166.9,298.4,164.2L298.4,164.2z"/>
		<path class="st3" d="M305.1,170.4c0.2,0.4,0-1.9,0.3-1.5c2.7,3.3,6,7.1,7.2,10.9c0.3,0.9-0.2,4.2-1.9,4.2c-2.3,0-6.7-6.4-7.6-8.8
			c-0.2-0.5,0.8-1.1,1-1.2c0.2-0.1,5.1,7.9,6.3,8.2c0.1,0,1.4-1.5,0.8-2.9C310.2,176.6,307,172.4,305.1,170.4L305.1,170.4z"/>
		<path class="st3" d="M301,176.2c0.1,0.3,1-1.4,1.1-1.1c2.4,4.2,5.2,7.2,6,10.9c0.3,1.4-0.9,2.9-2.3,3c-2.4,0.2-7.9-7.6-9.2-9.8
			c-0.2-0.3-0.1-0.2,1.2-0.9c0.1-0.1,5.7,8.4,6.8,8.6c0,0,2.5,0.2,2-2C305.8,182.4,302.9,178.3,301,176.2L301,176.2z"/>
		<path class="st3" d="M294.1,180.3c0.2,0.3,0.3-1.3,0.7-0.7c3,3.3,5.7,5.8,6.5,9.5c0.2,1.3-0.2,2.4-1.5,2.6
			c-2.4,0.2-9-7.2-10.2-9.4c-0.1-0.2-0.1-0.3,1.3-0.9c0,0,6.6,8.5,7.7,8.6c0,0,2,0.2,1.1-2C298.7,185.5,296.1,182.4,294.1,180.3
			L294.1,180.3z"/>
		<path class="st3" d="M284.4,186.4c0.1,0.2,0.5,0.6,0.9,1c0.1,0.2,0.5-0.3-0.3,0.9c-0.2,0.2-0.5,0.3-1,0.3c-1.1,0-2.2-3.5-2-5.4
			c0,0,0.8,1.1,1.1,1.4c0.1,0.1,0,2,0.7,2.5c0,0,0.1,0.1,0.3-0.3C284.5,186,284,186.5,284.4,186.4L284.4,186.4z"/>
		<path class="st3" d="M286.7,182.9c0.2,0.4,0.9-0.8,1.2-0.3c2.9,3.3,4,5,6,7.2c2.2,2.4,1,2.7-0.2,2.3c-5.1-1.5-10.7-9.7-12.8-11.4
			c0,0,0.8,0.1,2,0.2c0,0,8.6,9.1,9.6,9.2c0,0,1.5,1.4,0.2-0.3C291,187.7,288.8,185,286.7,182.9L286.7,182.9z"/>
		<path class="st3" d="M314.1,180.1c0.2,0.3-0.8,0.7-0.3,1.5c1.9,2.9,4.2,9,4.7,11.8c0.5,3.1,1.6,2.4,2,1.3
			c2.4-6.1-1.2-17.1-3.4-19.3c0,0-0.2,0.2-0.9,0.7c0,0,5.3,7.7,4,15.7c0,0-0.2,1.1-0.8-0.2C318.1,188.3,315.7,182.4,314.1,180.1
			L314.1,180.1z"/>
		<path class="st3" d="M309.6,187.6c0.2,0.3-1.1,0.5-0.7,1.1c1.8,3.3,3.1,6.8,5.3,9.1c2,2.3,2.8,0.6,2.9-0.5
			c1.1-6.4-2-11.3-3.8-14.2c0,0-0.4,0.5-0.9,1.1c0,0,4.5,5.5,3.6,11.9c0,0-0.6,1.1-1.3,0.2C312.2,193.7,311.2,191.5,309.6,187.6
			L309.6,187.6z"/>
		<path class="st3" d="M302.7,191.4c0.2,0.2-1.4,0.3-0.9,0.9c2.4,2.8,5.1,7,7.7,8.9c2.4,1.8,3-0.2,2.8-1.1
			c-1.8-6.9-2.5-7.2-4.8-10.7c0,0-0.7,0.2-1.1,0.9c0,0,3.3,2.3,4.6,8.9c0,0-0.3,1.1-1.2,0.4C306.8,197.5,305,194.9,302.7,191.4
			L302.7,191.4z"/>
		<path class="st3" d="M310.5,203.5c0.3,0.2-2.6-1.5-1.8-0.5c2.4,2.7,3.7,5.4,6.1,7.3c2.7,2.1,3,0,2.9-1.1c-0.2-2.9-1.4-5.1-3.6-8.4
			c0,0-0.3,0.7-0.7,1.5c0,0,1.3,2.8,2.9,6c0.1,0.2-0.4,0.9-1.1,0.5C313,207.6,312.7,206.6,310.5,203.5L310.5,203.5z"/>
		<path class="st3" d="M316.2,200.2c0.2,0.2-1.1-0.3-0.8,0.1c0.7,1.6,2.8,5.1,4.3,6.9c1.5,1.7,1.5,0.5,1.4-0.5
			c-0.7-4.3-1.5-5.1-2.8-7.8c0,0-0.4,0.2-0.8,0.7c0,0,1.1,1,2.5,5.6c0,0,0,1.1-0.5,0.5C317.7,203.6,317.6,202.9,316.2,200.2
			L316.2,200.2z"/>
		<path class="st3" d="M296.4,193.6c0.3,0.2-2-0.2-1.6,0.2c3,2.4,6.9,7.6,9.7,9.5c1.9,1.3,2.3-0.5,2-1.3c-0.5-2-2-4.2-5.6-8.9
			c0,0-0.9-0.3-1.2,0.4c0,0,2.4,0.9,5.4,7.3c0,0-0.2,1.2-0.7,0.8C302.1,199.6,299.3,196.8,296.4,193.6L296.4,193.6z"/>
		<path class="st3" d="M302.5,161.1c0.2,0.2-0.4-0.2-0.4,0.2c0,1.5,0.4,3.9,2,5.3c0.4,0.3,1.3-0.1,1.6-0.6c0.6-0.7,1.1-1.5,0.6-2.8
			c0.3-0.2-1.4-4.7-2-4.7c-0.3,0-0.5,0.3-0.2,1.3c0,0.1,0.9,2.6,1,2.9c0.3,1,0.2,1.2-0.1,2c-0.1,0.2-0.4,0.6-0.7,0.2
			C303.2,164,302.2,162.5,302.5,161.1L302.5,161.1z"/>
		<path class="st3" d="M306.8,166c0.2,0.1-0.6,1.5-0.4,1.6c2.3,3.2,6.7,10,7.1,9.2c0.5-0.7,0.6-2.4-0.2-3.7c0.2-0.2-5.1-9.5-5.6-9.4
			c-0.2,0-0.6,0.8-0.1,1.6c0.7,1.4,5.1,6.4,4.6,7.8c0,0-0.5,0.4-0.7,0.2C310.6,172,306.8,167.3,306.8,166L306.8,166z"/>
		<path class="st3" d="M285.4,157c-0.2,0.2,0.8-0.3,0.9,0.1c0.2,1.6-0.1,5.4-2,7.6c-0.6,0.7-3.1,1-4.1-0.5c-0.7-1.1,1.6-6.5,3.1-8.8
			c0,0.4,0.8,0.7,0.1,1.7c-0.7,1-2.4,4.8-2,6.2c0,0.1,1.6,0.9,2.3-0.2C284.6,161.8,285.4,159.3,285.4,157L285.4,157z"/>
		<path class="st3" d="M291.7,154.3c-0.2,0.3,1.4-0.5,1.4,0.1c-0.1,2,0.7,7.1-1.3,10c-0.6,0.9-4.8,2.1-5.8,0.4
			c-0.6-0.9,1-5.4,1.5-8.2c0.1,0.5,1.1-1.1,0.9-0.2c-0.4,2.1-1.3,5.5-0.8,7.2c0,0.2,2.6,0.5,3.3-0.8
			C291.7,161.1,292,157.1,291.7,154.3L291.7,154.3z"/>
		<path class="st3" d="M291.9,141.8c-0.1,0.3-0.1-2,0.5-1.1c2,3.2,4.5,7.7,3.6,10c-0.3,0.9-3.4,3.5-4.7,1.9c-0.6-0.9-1-5-1.1-8.2
			c0.2,0.6,0.2-1.4,0.5-0.4c0.5,1.9,1,5,1.7,6.6c0.1,0.1,2-0.3,2.4-1.8C295.1,146.9,293.3,143.9,291.9,141.8L291.9,141.8z"/>
		<path class="st3" d="M313.2,132.3c0.2,0.2-2.1-1.5-1.2-1.2c3.7,0.7,12.4,3.5,13.4,5.3c0.3,0.7,0.7,4.5-1.2,4.2
			c-1.1-0.2-8.2-3.5-10.4-5.3c0.5,0.2-0.7-1.6,0-1.1c1.6,0.7,8.2,4.2,9.7,4.6c0,0,0.3-1.7-0.4-2.7
			C322.2,134.8,315.7,132.9,313.2,132.3L313.2,132.3z"/>
		<path class="st3" d="M327.3,141.3c0.1,0.3-1.4-2.4,0.2-1.9c3.9,1.1,18.5,16.3,18.9,18.4c0.7,2.5-2,4.5-4.1,2.3
			c-4.9-5.3-12.3-13.1-15.7-14.8c0.4,0.4-0.2-1.6,0.3-2.4c0.7-1,15,14.6,16.1,15.5c0,0,1.6,0.5,1.3-0.7
			C344,156.3,329.5,142.6,327.3,141.3L327.3,141.3z"/>
		<path class="st3" d="M325.8,148.2c0,0.2-0.7-1.6,0.6-1.2c3.1,0.8,13,11.8,13,13.1c0,2.4-3.3,3.4-4.6,2.4
			c-4.2-3.3-7.9-7.4-10.5-8.7c0.2-1.1-0.2,1.5,0.2-2c0.1-0.9,9.8,8.6,10.4,9.2c0,0,3.1,0.7,3-1.3
			C337.9,158.7,327.6,149.2,325.8,148.2L325.8,148.2z"/>
		<path class="st3" d="M322.9,155.6c0.1,0.2,0.2-1.4,0.5-1.3c3.1,0.7,8.7,7.8,8.7,9c0.1,2.4-3.3,3.4-4.6,2.4c-4.1-3.3-4.7-3.8-7.4-5
			c0.5-0.8,0.6-0.7,0.8-1.7c0.1-0.7,6,4.6,6.8,5.1c0,0,2.7,0.3,2.6-1.6C330.2,161.7,324.5,156.4,322.9,155.6L322.9,155.6z"/>
		<path class="st3" d="M318.8,162.1c0.1,0.2,0.3-1.2,0.8-1.1c3,1.2,5.1,5,5.2,6.1c0.1,2.4-3.8,3-5,2.2c-4-3.2-1.6-1.7-4.3-2.9
			c0.4-0.8,0.6-0.4,0.8-1.2c0.2-0.7,3.6,2.2,4.2,2.8c0,0,2.1,0.4,2.4-1.3C323.2,165.9,320.4,163,318.8,162.1L318.8,162.1z"/>
		<path class="st3" d="M332.3,133.4c0.1,0.4,1.5-1.8,1.8-1.6c17.8,10.9,20.8,26.8,26.8,30.4c2.6,1.5-7.2,0.2-9.5-1.6
			c-6.2-4.7-14.9-18.8-23.9-23.1c0.5,0.6-0.8-2-0.7-2c12.9,4.7,21.9,21.9,25.4,24c0,0,4.2,1.8,3.5,0.2
			C352.8,152.7,339,135,332.3,133.4L332.3,133.4z"/>
		<path class="st3" d="M315,138.7c0.2,0.3-0.9-1.2-0.3-1.1c4.3,0.9,9.3,4.1,10.4,5.4c0.4,0.6,0.7,4.5-1.2,4.2
			c-0.8-0.1-5.1-1-7.4-2.9c0.5,0.2-0.2-0.3-0.2-1.7c-0.1-0.5,5.5,3.1,6.9,2.7c0,0,1.1-1.6,0.4-2.4
			C322.6,141.7,317.4,139.4,315,138.7L315,138.7z"/>
		<path class="st3" d="M316.7,146.9c0.1,0.2-0.2-1.2,0.2-1.1c2.9,0.8,5.2,2.9,5.9,4.2c0.2,0.5-0.2,4.7-1.3,4.1
			c-2.4-1.4-3-0.5-5.1-2.4c-0.1-0.7,0.1-0.6,0.1-1.7c0.1-0.4,3.7,2.9,4.6,2.5c0,0,0.7-1.5,0.2-2.4
			C320.8,149,318.3,147.6,316.7,146.9L316.7,146.9z"/>
		<path class="st3" d="M313.2,157.6c0.3,0-0.7,0.8-0.5,1.1c2,2,3.3,2.6,4.7,2.4c0.4,0,3-3.7,2.4-4.5c-0.2-0.4-1.3-2.1-4.2-2.8
			c0.1,0.2-0.6,1.9-0.3,1.3c0.1-0.2,2.6,0.5,2.9,2c0,0-0.6,2.1-1.4,2.2C315.8,159.5,314.6,158.5,313.2,157.6L313.2,157.6z"/>
		<path class="st3" d="M309.3,162.9c0.2-0.1-0.4,0.7-0.3,0.8c1.8,2,2.3,3.2,3.6,2.9c0.2-0.1,3.4-3.2,2.9-4.1
			c-0.1-0.2-0.7-1.6-3.3-3.1c0.1,0.2-0.8,1.8-0.7,1.2c0-0.1,2.4,0.6,2.9,2c0,0-1.3,2.1-2,2.3C311.4,165.2,310.7,163.9,309.3,162.9
			L309.3,162.9z"/>
		<path class="st3" d="M298.3,150.7c-0.2,0.3,0.7-1,1-0.1c1.5,3.4,0.8,8-0.2,10.5c-0.5,1.1-3.3,3.9-4.5,1.2c-0.4-0.9-0.5-5.9-0.1-9
			c0.1,0.5,1-1.1,1-0.2c0.2,1.8-0.1,8.6,0.7,8.3c0.5-0.2,1.7-0.5,2.3-2.3C299,157.5,298.7,153.5,298.3,150.7L298.3,150.7z"/>
		<path class="st3" d="M322.5,190.2c0.6,0.1-0.1,1.4,0.3,1.7c4.1,2.9,19.3,14.2,22.8,15c1.5,0.3,8.8-2,6-3.9
			c-0.9-0.7-25.3-15.7-29.2-17.5c0.7,0.5-0.1,1.1,0.6,1.5c1.6,1.1,27.8,16.6,27.2,17c-0.5,0.2-2.7,2-4.8,1.2
			C342.9,204.3,325.2,192.5,322.5,190.2L322.5,190.2z"/>
		<path class="st3" d="M321.6,194.8c0.5,0.1-0.8,0.7-0.3,1.1c3.2,2.7,14.3,12.3,17.1,13.1c1,0.2,6.7,0.4,4.9-1.5
			c-0.7-0.7-2.7-0.9-1.1-0.6c0.4,0.1-2.6,1.1-4.2,0.3C336.1,206.6,323.8,196.9,321.6,194.8L321.6,194.8z"/>
		<path class="st3" d="M319.8,197.6c0.3,0.1-1.6,0.1-0.5,1.1c2.4,2,11.5,10.9,13.5,11.4c0.7,0.2,5.1,0.2,4.5-0.3
			c-0.4-0.4-1.3-0.7-1.5-0.8c0,0-1.6,0.3-2.8-0.1C331.8,208.3,321.4,199.2,319.8,197.6L319.8,197.6z"/>
		<path class="st3" d="M322.5,193c0.3,0.1-1,0.5,0.1,1.3c2.3,1.9,16.5,11.8,16.4,11.7c-0.2-0.4,1.9,0,1.5-0.2
			C339.3,205.4,324.1,194.8,322.5,193L322.5,193z"/>
		<path class="st3" d="M320.7,196.3c0.2,0.1-0.8,0.2-0.2,0.9c1.5,2,12.4,10.9,12.8,10.6c0.2-0.2,1.5,0.1,1.2-0.1
			C333.6,207.3,322,197.9,320.7,196.3L320.7,196.3z"/>
		<path class="st3" d="M320.7,201.3c0.2,0.1,0.1,1.2,0.4,1.6c3.3,4.5,7.4,7.1,7.8,7.3c2,0.6,2-0.2,1.8-0.4
			C327.9,208.1,329.1,209.6,320.7,201.3L320.7,201.3z"/>
		<path class="st3" d="M322.4,187.7c0.3,0.1-1,0.4,0.7,1.9c1.9,1.8,22.2,14.4,22.2,14.4c-0.1-0.4,1.9-0.5,1.5-0.7
			C345.8,203,324,189.5,322.4,187.7L322.4,187.7z"/>
		<path class="st3" d="M293.4,139c0,0.3-1.1-2,0.1-1.1c2.9,2.1,7.3,6.3,7.3,9c-0.1,1.2-3.4,3.8-3.6,2.8c-0.2-1.2-0.2-0.9-0.1-1.4
			c0,0,1.9-0.7,1.9-2.2C298.9,144.3,295.4,140.6,293.4,139L293.4,139z"/>
		<path class="st3" d="M279.9,157.3c0.1,0.2,0-1-0.7-0.2c-1.8,1.8-3.6,4.4-2.9,6c0.6,1.4,3.5,1.9,3.4,1.1c-0.1-0.7-0.1-0.6-0.2-0.8
			c0,0-1.7-0.2-2-1.1C277,161.2,278.7,158.6,279.9,157.3L279.9,157.3z"/>
		<path class="st3" d="M306.6,204.7c0.2,0-1.1,0.5-0.5,1.2c1.1,1.3,2.6,3.2,3.8,4.2c0.6,0.5,2-0.7,1.9-1c-0.1-0.6-0.2-0.7-0.6-0.8
			c0,0-1.1,0.6-1.6,0.2C309.2,207.8,307.5,206.1,306.6,204.7L306.6,204.7z"/>
		<path class="st3" d="M300.3,149.5c-0.2,0.3,0.2-2.3,0.7-0.8c1,3.4,2.7,9.7,0.4,11.6c-0.8,0.7-1.5,1.1-1.2,0.4
			c0.4-0.9,0.2-1.5,0.3-1.5c0,0-0.3,0.2,0.3-0.7C301.9,157.1,300.8,152,300.3,149.5L300.3,149.5z"/>
		<path class="st3" d="M300.8,142.7c-0.1-0.2,0.1,0.8-0.2,1.1c-0.2,0.2-0.9-0.1-1.2-1.1c-2.9-11.5-14.8-8.3-14.8-11
			s-0.2-4.2,0.7-5.9c0.2-0.7,2.4-0.8,4-1c2.1-0.2,0.1,1.6-0.2,1.5c-0.6-0.3-2.3-0.2-2.5,0.6c-0.3,1.4-0.9,2.9-0.2,4
			C287,132,297.7,130.2,300.8,142.7L300.8,142.7z"/>
		<path class="st3" d="M307.9,139.2c1-0.2,2.1,7.1,2,9.5c-0.1,0.7-3.8,7.2-6,8.2c-0.1,0-0.2-2.6,0-2.7c1.9-0.8,3.8-4.6,3.8-5.8
			c-0.1-5.1-0.7-5.7-2-9c-4-10.5-13.5-9.3-14.4-11.3c-1.2-2.8-0.1-4.2,0.7-5.9c0.3-0.6,19.3-3.8,36.4,6c0.9,0.5,3.5,1.4,5.8,1.2
			c0.6,0-3.4,3.3-6,4c-0.8,0.2-3.6,1.3-5.9-0.3c0,0-0.7-1.9-0.6-2.4c0.2-0.6,2.4,0.2,1.9,0c-0.3-0.1-0.1,1.4,0.3,1.4
			c1.4,0.1,4.7-0.8,4.7-0.8c-12.3-9.5-35-8.6-35.2-7.9c-0.6,1.6-1.1,2.9-0.2,3.8C294.4,128.2,304.8,127.8,307.9,139.2L307.9,139.2z"
			/>
		<path class="st3" d="M275.4,146.5c0.1-0.2,0.2,0.9,0.9,0.7c2.3-0.8,5.1-2.3,3.2-4.1c-0.2-0.1-2.2-0.3-2.5,0
			c-1,1.1-4.3,2.4-6.8,3.8c0.2-0.2-1.7,0.9,0.1,0.7c2.4-0.2,8.3-5,8.2-3.3C278.4,145.2,277.5,145.2,275.4,146.5L275.4,146.5z"/>
		<path class="st3" d="M298.7,135.4h1.4l0.5,1c-0.5,0-0.9,0.1-1.5,0L298.7,135.4L298.7,135.4z"/>
		<path class="st3" d="M300.8,127.7l2.3-0.1l1.4,0.9c-0.8,0-1.3,0.1-2.3,0L300.8,127.7L300.8,127.7z"/>
		<path class="st3" d="M301.2,141.1l1.4,0.1l0.4,1.7c-0.4,0.1-1,0.1-1.5-0.1L301.2,141.1L301.2,141.1z"/>
		<path class="st3" d="M302.2,148.6l1.2-0.2l0.2,1c-0.4,0-0.2,0.7-0.8,0.6L302.2,148.6L302.2,148.6z"/>
		<path class="st3" d="M306.3,156.8c1.5,0.7,2.7,1.8,3.8,2.9c-0.1,0.8-0.9,1.9-1.9,2.7c-0.3-0.5-0.6-1.2-0.9-1.7
			c0.2-0.4,0.7-0.4,1-0.7c-0.6-1.1-1.5-1.7-2.7-2.4C305.8,157.4,306.1,157.1,306.3,156.8L306.3,156.8z"/>
		<path class="st3" d="M314.6,167.1c1.7,0.6,3.2,2.4,4.1,3.6c0,0.8-0.9,1.5-1.9,2.3c-2.4,3.9-1.5,0.8-1.5-0.2c0.2-0.5,1.1-2,1.5-2.3
			c-0.6-1-1.8-1.7-2.9-2.4C314.1,167.7,314.4,167.3,314.6,167.1L314.6,167.1z"/>
		<path class="st3" d="M309.6,152.4c1.2,0.7,2.4,1.4,3.8,1.9c0.2,0,0.5,0,0.7-0.1c-0.9,1.9-2,3.2-3.4,4.6c-1.2-0.9-2.3-1.6-3.4-2.7
			c0.2-0.3,0.3-0.7,0.7-1c0.6,0.9,1.7,1.6,2.6,2c0.4-0.6,0.7-1.2,1.1-1.8c-1.1-0.6-1.8-1.5-2.5-2.1
			C309.4,152.9,309.3,152.7,309.6,152.4L309.6,152.4z"/>
		<path class="st3" d="M310.8,145.6c1.5,0.2,2.4,1.2,3.8,1c0.2-0.2,0.3-0.4,0.4-0.7c0.2,2.6,0.2,5.9-0.4,6.5
			c-1.6,0.2-2.7-0.2-4.2-0.9c0.1-0.6,0.4-1.4,0.5-1.9c1,0.6,1.6,0.8,2.6,0.8c0.1-0.8,0-1.8,0.2-2.6c-1.3,0-1.9-0.7-2.9-0.9
			C311,146.5,310.7,146.2,310.8,145.6L310.8,145.6z"/>
		<path class="st3" d="M309.2,137.9c1.4,0.2,2.4,0.8,3.7,0.3c0.2-0.2,0.2-0.3,0.3-0.6c0.7,2.5,1.7,5.7,1.7,7.4
			c-1.6,0.5-3.1-0.4-4.8-0.8c0-0.6,0.2-1.4,0.2-1.9c1.1,0.3,1.7,0.5,2.8,0.2c-0.2-0.8-0.3-2.3-0.4-3.1c-1.2,0.3-2-0.2-2.9-0.3
			C309.6,138.6,309.2,138.5,309.2,137.9L309.2,137.9z"/>
		<path class="st3" d="M295.3,125.3c1.2-0.7,5.9-0.2,7.3-0.3c0-0.3,0.9,0.1,1.2-0.5c2.2,1.5,4.8,4.5,6,5.8c-0.8,1.5-2.8,0.2-4.5,0.6
			c-0.7-0.9-0.7-0.7-1-1.1c1.1-0.4,2,0.2,2.9-0.2c-0.8-0.5-2.7-2.2-2.9-3c-0.9-0.2-6.6-0.4-7.6-0.2
			C296.2,125.9,295.7,125.8,295.3,125.3L295.3,125.3z"/>
		<path class="st3" d="M306.3,131.9c1.4-0.2,2,0.1,3.6-0.2c0.1-0.2,0.2-0.5,0.3-0.7c1.5,1.8,2.3,4.1,2.3,5.4
			c-1.4,0.5-2.2,0.1-3.8-0.1c-0.2-0.4-0.3-1-0.5-1.4c1.1,0.2,1.8,0.2,2.7-0.2c-0.2-0.6-0.6-1.3-0.8-1.9c-1.1,0.1-1.7,0.1-2.7,0.2
			C307.2,132.8,306.4,132.3,306.3,131.9L306.3,131.9z"/>
		<path class="st3" d="M359,164.3c0.2,1.8,1.4,4.5,2.2,6.8c0.4,1,0.9,2.6,0.8,3.3c-1.4,10.9-0.1,29.3-2.5,30.8
			c0-0.6-0.2-1.2-0.2-1.8c0.3-8.8-3.3-17.1-4.1-25.6c-0.1-0.7-0.2-1.8-0.6-2.3c-1.6-2.9-5.1-2.8-7.3-13.6c0.4,0,1-1.2,1.1-1
			c0.7,0.9,1,0,1.1,1.1c0.7,8.1,4.7,8.8,6.7,12.2c0.2,0.4,1,1.5,0.9,2.9c-0.2,2.9,2,13.2,2.2,15.3c0.1,1,0.8,1.6,0.8,0.6
			c-0.3-6.6-0.1-11.6-0.2-16.9c0-0.3,0.1-1.4,0.1-1.9c0-2-1.2-3.8-3-10.1L359,164.3L359,164.3z"/>
		<path class="st3" d="M353.5,176.7c1.6,11,2.8,13.5,1.6,24.5c-0.2-0.4-0.6-0.9-0.6-1.6c-0.2-7.8-4.7-13.8-6.1-21.9
			c-0.1-0.3,0.2-2-1-3.4c-1.9-2.5-3.8-2.9-8.4-10.8c0.6-0.4,2-2.9,2.2-0.7c0.9,5.9,5.8,7.4,8,10.4c0.2,0.2,0.4,2.4,0.5,3.5
			c0.3,2.9,2.8,9.5,3,11.5c0.1,0.8,1,1.2,0.8,0.2c0.2-6.7-1.1-8.3-2.4-13.4C351,173.8,353.5,175.9,353.5,176.7L353.5,176.7z"/>
		<path class="st3" d="M346.2,175c2,8.2,4.2,12.2,3.6,23.3c-0.2-0.4-0.6,0.3-0.7-1.6c-0.4-6.4-5.1-10.2-6.8-20
			c-0.2-1.1-0.9-0.7-1.6-1.6c-2.9-3.9-3.4-1.4-8.3-9.1c0.5-0.4,0.2-2.8,1.5-1c3.9,5.9,5.3,5.2,7.5,8.1c0.2,0.2,1,0.6,1.6,1.4
			c2.1,2.7,1.9,8.4,3.9,11.7c0.4,0.7,1.1,1.2,0.9,0.2c-0.9-6.8-1.8-5.5-3.2-12.4C344.3,173,346.1,174.4,346.2,175L346.2,175z"/>
		<path class="st3" d="M339.8,175.6c2,5.9,2,5.9,2.9,14c-1.1-0.3-1.2-0.5-1.3-1.1c-1.2-5.6-2.9-6-4.9-10.3c-0.2-0.2-1.9-1.6-2.4-2
			c-2.9-2-3.9-1.1-8.5-6.1c0.2-0.3,0.5-2.9,1.3-1.5c2.2,3.9,2.5,2.9,4.7,4.4c0.2,0,2.3,0.7,2.9,1c2.2,0.9,4.7,5.4,5.4,7.7
			c0,0,1.1,0.4,0.5-1.1c-2-4.7-0.2-2.3-2.7-6.4C337.3,173.8,339.7,175.2,339.8,175.6L339.8,175.6z"/>
		<path class="st3" d="M332.2,176.3c2.4,4.2,2.6,4,4.4,10.2c-0.9-0.1-1-0.3-1.1-0.6c-3.2-4.1-3.8-4-5.7-7.2
			c-0.1-0.2-1.2-1.2-1.6-1.4c-2.5-1.1-4.7-0.8-8.9-4.1c0.2-0.3,1-2.1,1.7-1.2c2.2,2.8,3.2,2,5,2.9c0.1,0,1.1,0.2,1.5,0.2
			c2.2,0.5,4.3,4.4,5.7,5.9c0,0,0.8,0.1,0.2-1c-2.2-3.4-0.2-0.7-2.6-3.5C330.4,176.2,332,176.1,332.2,176.3L332.2,176.3z"/>
		<path class="st3" d="M354.4,164.5c0.5,1.6,1.9,4.7,1.9,5.9c-1.3-0.2-4.7-5.1-5.1-7.9C350.9,162.5,354.4,163.3,354.4,164.5
			L354.4,164.5z"/>
		<path class="st3" d="M345.1,162.5c0.5,1.6,1.3,5,2.9,7.8c-1.2-0.1-4.8-5.4-5.2-8.2C342.6,162,344.8,162.1,345.1,162.5L345.1,162.5
			z"/>
		<path class="st3" d="M337.8,164.1c0.7,1.5,2.4,4.1,3.8,7c-2-0.6-4.5-4.3-5.8-6.8C335.5,164.3,337.5,163.8,337.8,164.1L337.8,164.1
			z"/>
		<path class="st3" d="M330.6,167.3c0.2,1.3,1.6,2.7,3.8,5.1c-1.6-0.2-4.9-2.9-5.9-5C328.7,167.3,330.3,167,330.6,167.3L330.6,167.3
			z"/>
		<path class="st3" d="M323.8,170.6c0.2,0.7,0.8,1.5,2.1,2.8c-1-0.2-3.2-1.1-3.7-2.3C322.3,171,323.7,170.5,323.8,170.6L323.8,170.6
			z"/>
		<path class="st3" d="M294,194.3c0,2.4,0.5,3.3,0.6,3.7c0.8,2.3,1,3.3,2.2,5c0.5,0.6,0.7,0.7,1.9,0.7c0.8-0.1,0.5-2.8,0.6-4.2
			c-0.2-0.1-0.5-0.4-0.9-0.6c-0.2,0.4,0.3,2.4-0.2,3.3c-0.1-0.1-0.2,0-0.3,0c-1.1-0.6-1.3-1.7-1.5-2c-0.7-1.4-1.1-2.9-1.4-4.5
			C294.7,195.7,293.8,194.3,294,194.3L294,194.3z"/>
		<path class="st3" d="M287.5,199.8c-1.5-0.2-4.3-0.6-5-0.6c-1.5-0.1-2-0.1-3,0.5c-0.4,0.2-1.2,0.7-0.2,1.3c0.2,0.7,4.2,0.5,6,1.1
			c0-0.2-0.1-0.4,0.1-0.7c-0.2-0.2-3.5-0.8-4.2-0.9c-0.1,0-0.5,0.1-0.4-0.5c0.1-0.2,0.4-0.2,0.6-0.3c0.9,0,3.5,0.2,5.1,0.9
			C286.5,200.6,287.5,199.7,287.5,199.8L287.5,199.8z"/>
		<path class="st3" d="M287.6,194.6c-0.7-0.1-2,0-2.1,0.1c-1.2,0.6-0.7,0-1.4,0.6c-0.3,0.2-0.9,0.6-0.8,2.3c0.2,1.1,3.3,0.7,5.1,1.6
			c0-0.2,0.3-0.2,0.5-0.7c-0.2-0.3-3.3-1-4-1.2c-0.3-0.6-0.2-0.2-0.1-1c0-0.2,0.2-0.4,0.4-0.6c0.9,0,0.8-0.2,2.7-0.2
			C287.9,195.5,287.7,194.4,287.6,194.6L287.6,194.6z"/>
		<path class="st3" d="M287,193.4c-0.5-0.2-2.6-1.1-2.6-1.1c-0.7-0.6-0.5-0.3-0.7-0.8c-0.1-0.2-1-1.7-0.8-2.1c1-0.7,1.6,0.6,3,0.6
			c-0.1,0.1,0.2,0.4,0.1,0.7c-0.2,0.2-0.5-0.1-1-0.2c-1.1-0.2-0.7-0.2-0.4,0.7c0.1,0,0.5,0.4,0.6,0.6c0.5,0.3,0.6,0.2,1.7,0.8
			C286.8,192.6,286.9,193.5,287,193.4L287,193.4z"/>
		<path class="st3" d="M293.2,197.5c-0.9,0.1-2.3,1.1-2.4,1.1c-2,1.4-2.7,1.8-3.9,3.4c-0.4,0.6-0.7,2.1,0.3,2.2
			c0.2,0.7,6-1.1,7.3-1.5c0-0.2-0.2-0.6-0.4-1.1c-0.5,0-4.7,1.6-5.5,1.4c0-0.2-0.2-0.6-0.2-0.7c0.2-1.1,0.9-1.4,1.1-1.6
			c1.1-1,2.3-1.5,3.8-2.3C293.2,198.5,293.4,197.2,293.2,197.5L293.2,197.5z"/>
		<path class="st3" d="M286.9,188.8c0,1.7,1.1,4,1.2,4.2c0.8,1.6,1.2,2,2.4,3.2c0.5,0.5,0.8,0.6,2,0.6c0.7-0.1,0.2-2.4,0.2-3.4
			c-0.2-0.1-0.5-0.4-1-0.6c-0.2,0.2,0.2,1.3,0.1,2.5c-0.2-0.1,0.2,0.6-0.6,0.2c-0.9-0.4-1.1-1.1-1.3-1.2c-0.7-1-1.3-3-1.6-4.2
			C288.3,190.1,286.7,188.8,286.9,188.8L286.9,188.8z"/>
		<path class="st3" d="M297.2,199.7c-0.2-0.7-0.2-1.5-0.2-2.2c-0.3-0.2-0.7-0.7-0.9-0.9v1.1c0,0,0.2,0.9,0.3,0.9
			C296.5,198.9,297.2,199.7,297.2,199.7L297.2,199.7z"/>
		<path class="st3" d="M290.2,201.9c0.7-0.3,2.9-1.1,3.7-1.1c-0.1-0.5-0.1-0.5-0.2-0.8c-0.7-0.1-1.1,0-1.7,0.4c0,0-0.8,0.4-0.8,0.6
			C290.9,201,290.1,201.9,290.2,201.9L290.2,201.9z"/>
		<path class="st3" d="M290,197.6c-3.3,0.4-3.2-0.9-3.8-1c0-0.3-0.2-0.2-0.1-0.5c0.7-0.1,1.6,0.5,2.1,0.5c0,0,0,0.3,1.7,0.7
			C290.3,197.4,290.1,197.5,290,197.6L290,197.6z"/>
		<path class="st3" d="M290.8,193.3c-0.2-0.5-0.3-1.1-0.3-1.6c-0.2-0.2-0.6-0.5-0.9-0.6v0.8c0,0,0.2,0.6,0.3,0.6
			C290,192.8,290.6,193.4,290.8,193.3L290.8,193.3z"/>
		<g>
			<path class="st4" d="M270.3,194c-0.2-1-0.2-1.3-0.2-2c0.1-1.3,2-2.7,2.3-2.6c0.2,0.4-0.4,1.2-0.1,2.7c0.1,0.5,1.1,0.5,0.7,1.4
				C271.8,194.7,270.4,194.7,270.3,194L270.3,194z"/>
			<path class="st4" d="M270.5,200.4c0.7,0.3,0.8,0.5,1.3,0.6c0.9,0.2,1.8-0.7,1.8-1c-0.2-0.2-1.5,0.1-1.9-0.6
				c-0.2-0.2-1.1-0.2-1.7-0.1C268.9,200,270.1,200.2,270.5,200.4L270.5,200.4z"/>
			<path class="st4" d="M268.5,201.2c0.4,0.3,0.6,0.4,0.9,0.6c0.7,0.2,1.3-0.5,1.4-0.7c-0.2-0.2-1.1,0-1.4-0.5
				c-0.1-0.2-0.7-0.2-1.2-0.2C267.4,200.8,268.2,201,268.5,201.2L268.5,201.2z"/>
			<path class="st4" d="M266.5,202.1c0.4,0.3,0.5,0.3,0.7,0.5c0.6,0.2,1.1-0.4,1.2-0.6c-0.2-0.1-1,0-1.1-0.4
				c-0.1-0.2-0.7-0.2-1.1-0.2C265.5,201.8,266.2,202,266.5,202.1L266.5,202.1z"/>
			<path class="st4" d="M268,197.9c-1.3-2,0.7-2.7-1.5-5.6c0-1.1,0.2-1,0.6-1.4c0.5-0.4,2.1-0.5,2.7-1.1c-0.4,0.8-2.1,3.3,0.5,6
				c0.1,0.1-0.1,1.1,0.2,3c-0.5-0.2-0.7,0.1-1.1-0.1C268.8,198.5,268.2,198,268,197.9L268,197.9z"/>
			<path class="st4" d="M268.3,200.1c-0.1-0.2,0-0.7-0.1-0.7c-1.1-0.8-2.3-2-1.6-5.1c-0.7-1-0.6-1.6-0.9-1.7
				c-0.6-0.2-1.3,1.3-1.3,1.8c0.7,0.6,1,1.5,1.2,3.9c0,0,0.2,0.6,1.2,1.9C267.3,200.3,267.8,200,268.3,200.1L268.3,200.1z"/>
			<path class="st4" d="M265.9,201c-0.1-0.2,0.2-0.5-0.2-1.1c-0.5-0.8-1.1-1.3-1.1-3.6c-0.5-0.8-0.7-1.2-0.9-1.3
				c-0.5-0.2-0.8,1.1-0.8,1.5c0.6,0.5,2.9,3.3,1,3c-0.6-0.1,0.7,0.8,1.1,1.2C265.5,201,265.5,201,265.9,201L265.9,201z"/>
			<path class="st4" d="M280.5,191.7c0.7,0.4,1.1,0.5,1.1,1.7c-0.5,1.6-2.5,2.4-4.9,5.1c-0.3,0.4-1.1,0.1-1.3,0.1
				c-0.9-0.6-2-0.7-2.2-1.7c0-0.1,0.2-0.3,0.2-0.4c0.9-0.7,1.9,0.2,2.8,0.2l-0.2-1.4c-0.2-0.5-1.1-0.7-2.1-0.8
				c-0.7,0.2-1.8,0.9-2.3,1.6c-0.4,0.6,0,2,0.3,2c0.5,0.7,2.5,2,3.7,2.3c0.4,0,1.3,0.5,2.5-0.7c0.6-1.6,4.2-2.6,4.9-6
				c0.2-0.7,0-1-0.1-1.8c-0.2-0.5-1.3-1.4-1.8-1.5L280.5,191.7L280.5,191.7z"/>
		</g>
		<g>
			<g>
				<path class="st5" d="M253.3,141.6c0-0.7-0.1-1.5-0.8-1.3c-2,0.7-5.1,3.7-5.1,5.5c0,4.4,1.7,10,4.1,11.3c1,0.4,4.3,0,5.5-0.7
					c0.2-0.2-0.3-1.2-0.3-1.6c-0.8,0-2.9,0.9-3.8,0.4c-2.6-0.7-2.6-5.8-2.3-8.4l2.5-4.6c-1,1-2.6,1.9-3.2,1.6
					C249.8,142.8,252.5,140.7,253.3,141.6L253.3,141.6z"/>
				<path class="st5" d="M258.3,150.9c0.1,1.9-5.4,2.5-5.7-0.2C254.3,151.6,256.8,151.8,258.3,150.9L258.3,150.9z"/>
				<path class="st5" d="M267,152.7c4.3-1.5,8.1,7.1,4.3,10.9C272.6,160.1,271.4,153.7,267,152.7L267,152.7z"/>
				<path class="st5" d="M264.3,154c0.1-0.2,0.2-0.6,0.2-0.5c0.2,0.3,0.7,0.3,0.9,0.3c2.3,0.2,4.7,3.7,5.2,7.9
					c0.2,3.7-9,11.7-11.9,15.7c-1.3,3.3,1.4,7.2,0.7,6.8c-6.4-3.8-1.6-9.9-1.1-10.4c7-8.1,13.6-11.7,8.1-17.5c0,0-1.6-0.6-2-0.9
					C264,155.1,264,154.4,264.3,154L264.3,154z"/>
				<path class="st5" d="M276.4,194.3c0.2,0.1,1.6-1.9,1.8-2.1c0-0.1,0.1-0.3,0.6-1c1.4-2.3,0.6-6.3-2.4-8.1
					c-3.3-2.1-8.6,0.3-13.4-1c-2.4-1.2-2.5-5.1-2.7-4.6c-1.7,5.5,3.9,6.2,4.5,6.2c7.8,1,12.9-1.9,12.7,5.6c0,0-0.2,0.7-0.4,1.1
					c-0.9,1.1-2.2,2.7-2.2,2.7C274.5,193.3,276.3,194,276.4,194.3L276.4,194.3z"/>
				<path class="st5" d="M256.5,141.2c0.3-0.1,0.5-1,0.7-0.8c0.8,1.4,1,3-0.2,4.7C257.2,143.5,257.1,142.5,256.5,141.2L256.5,141.2z
					"/>
				<path class="st5" d="M259.5,144.9c1.2,1.6-7,6.6-7.8,4.7c-0.3-0.9,1.1-5.3,2.2-7.3c0.7-1.4,0.2-2.4-0.2-2.4
					c-0.8-0.2,1.2-1.7,1.3-1.7c1.9-1.1,2.3,1.1,1.7,1.6c-2.1,2.2-1.3,2.9-1.1,2.9c0.6-0.3-0.1,2.4-1.8,3.7c-0.3,0.2-0.7,1.3-0.2,1.8
					C255.5,147.7,258.6,146.4,259.5,144.9L259.5,144.9z"/>
				<path class="st5" d="M267.1,160.1c-0.2,0.2,0.4-0.6-0.1-1.6c-0.1-0.1-0.5,1.1-1.1,1.5c-3,3.8-8.9,5.1-11.5,11.1
					c-1.9,4.4-2,9.3,0.2,13.8c2.4,5.3,12.9,3.1,18.2,3.1c1.5,0.1,0.6,2.6,0.6,3.5c0.5-0.2,1.3-1.8,1.4-1.9c1.1-2.7-0.7-3.5-1.4-3.4
					c-9.1,1.1-14.4,0.7-16.6-2.9c-3.2-5.3-2.1-8.8-0.2-11.5C260.9,165.6,262.2,167,267.1,160.1L267.1,160.1z"/>
				<path class="st5" d="M245.8,169.8c2.6,0.9,4.8,3.6,5,4.6c0.8,3.6-2.1,7.3-1,10c1.2,3,4.4,2,7.2,5.8c2.6,3.3-0.2,4.7,4.7,6.9
					c0.2,0.3,0.6,0.8,0.8,1.3c-4.5,0-5.3-2.9-6.4-7.1c-1.1-3.4-5.6-2.4-7.8-6.4c-0.4-4,1.6-6.2,1.4-9.5c0.2-2.3-4-4.7-4.7-4.7
					C244.7,170.7,245.8,170.1,245.8,169.8L245.8,169.8z"/>
				<path class="st5" d="M243.9,172c2.6,0.9,3.3,2.7,3.5,3.5c1,3.5-2.6,6.9-1.6,9.6c1.1,2.9,3.8,3.5,7.9,6.9
					c3.2,2.6-0.6,11.3,10.2,9.4c0.3,0.4,1.1,1.1,1.4,1.6c-10.4,3.4-11.3-5.6-12.4-9.8c-2.9-2.7-6.2-2.8-8.4-6.9
					c-1.1-5.7,2.1-6.4,1.9-9.6c0.2-2.2-1.6-3.6-2.4-3.6C243.6,173.1,243.8,172.2,243.9,172L243.9,172z"/>
			</g>
		</g>
		<path class="st4" d="M244.6,169.1c-0.9,1.1-2.2,1.9-1.7,4.2c0.1,0.1,0.4,1.1,0.4,1.2c-0.4,0-1.4-0.2-1.9-0.4
			c-0.1-2.4-1.1-3.2,1.4-5.4C243.8,168.4,244.1,168.8,244.6,169.1L244.6,169.1z"/>
		<path class="st4" d="M241.9,168.2c-0.8,1.1-2.2,1.9-1.6,4.2c0,0.1,0.4,1.1,0.4,1.3c-0.5,0-1.4-0.3-1.9-0.5
			c-0.1-2.4-1.1-3.2,1.3-5.4C241,167.5,241.4,168,241.9,168.2L241.9,168.2z"/>
		<path class="st4" d="M239.1,167.7c-0.9,1.1-2.3,1.9-1.7,4.1c0,0.1,0.4,1.1,0.4,1.3c-0.6,0.5-1.4-0.2-1.9-0.5
			c-0.6-1.6-1.4-2.1-1.2-3.1c0.1-0.6,1.6-1.4,2.6-2.3C238.2,166.9,238.6,167.3,239.1,167.7L239.1,167.7z"/>
		<path class="st3" d="M307.5,211.7c-0.7,0.1-1.7,0.1-2.4,0.6c0-0.1-0.6,4.5,0.6,4.1c0.5-0.2,1,0.1,1.3-0.5c0.4,0,0.4-2.6,0.9-2.6
			c0-0.2,1.6-0.3,2.2-0.3c1,0,2-0.9,2-0.7c0.2,0,0.9,0,1.3,0.2c-1.1,0.8-2.9,3.3-4.2,3.3c-0.3,0-1.5,0.8-1.5,1.1
			c0,1,0.9,2.3,1.6,3.2c0.6,0.2,2.2,0.3,3.2-1.7c0.8-0.3,3.5-4,4.2-4c0.2-0.4,1.3-0.5,2.2-0.2c1.7,0.2,1.5,1.5,2,1.6
			c0,0.7,0.5,1.5,2.8,1.8c3.8-0.5,3.8,0.4,5-2.2c1.6-1.8,0.8-1.7,0.5-2.6c-0.6-0.7-1.3-1.2-2.2-1.5c-3.1,0.2-4.3-0.5-5-2.1
			c0,0-0.9-0.1-1.5-0.1c0.9,1.5,1.4,2.3,2.9,2.8c0.4,0.4,2.4,0.2,2.6,1.2c-0.5,1.8-1.3,2-1.5,2c-1.5,0.1-1.7-1.2-2.2-1.6
			c-0.4-0.4-3.3-2.4-3.3-2.8c0,0-0.8,1.6-2.3,1.5c-0.7,0-4.6,4.6-5.5,5.3c-1-0.1-1.5-0.4-0.9-0.7c0.7-0.7,3.7-3.7,4.1-4.1
			c0.2-0.6,0.1-0.8-0.1-1.1c-0.2-0.3-0.5-0.5-1-0.5C311.6,211,308.2,212.4,307.5,211.7L307.5,211.7z"/>
		<path class="st3" d="M303.9,212.6c-0.2,1.2,0,2.6,0.3,4c-0.6,0-1.2-0.1-1.9,0.1c-0.7,0.2-1.5,1.3-0.7,2.3l-0.3-0.2
			c-1.5-0.4-2.4-2.4-0.9-4.5C300.9,213.5,303.4,212.5,303.9,212.6L303.9,212.6z"/>
		<path class="st3" d="M307,217.8c0.4,1.2,1,2,1.9,3c-1,0.7-2.3,3-0.2,3.5c-0.1,0-1.1,0.2-1.1,0.2c-1.5,0.3-3.3-1.1-2.9-3.5
			C304.8,220.2,306.5,217.9,307,217.8L307,217.8z"/>
		<path class="st3" d="M330.8,214.5c-1,0.9-1.4,1.5-1.7,2.8c1,0.6,2.3,3.1,0.2,3.6c0.1,0,1.1,0.2,1.1,0.2c1.5,0.3,3.2-1.1,2.9-3.5
			C333.3,216.8,331.4,214.7,330.8,214.5L330.8,214.5z"/>
		<path class="st6" d="M343.3,223.3c-1,0-2-0.3-2.5-0.2c-1.1,1.1,0.4,1.6,0.9,1.2L343.3,223.3L343.3,223.3z"/>
		<g>
			<path class="st7" d="M271.3,210.4l0.2-1.1c-1.8-0.3-2.9,0.7-2.9,3.1c0.1,2.4,0.4,3.5,1.8,4.2c1.5,0.7,3.3,0.2,4.1-3.1
				c0.8-3.2-0.7-4-2.9-4.2L271.3,210.4c0.7,0.2,1.4,1.4,1.1,2.6c-0.2,1.2-1.1,2.4-1.9,2.2c-0.7-0.2-1.1-1.5-0.8-2.7
				C269.9,211.4,270.7,210.5,271.3,210.4L271.3,210.4z"/>
			<path class="st7" d="M268.4,206.8c0.5-0.7,1.2-0.9,2-0.7c0.4,0.9,0.5,1.7,0.2,2.5c-0.2,0-0.5,0.1-0.7,0.2
				C269.2,208.3,268.7,207.6,268.4,206.8L268.4,206.8z"/>
			<path class="st7" d="M271.8,205.8c0.7-0.4,1.5-0.3,2.3,0.2c0,1-0.2,1.7-0.8,2.4c-0.2-0.1-0.5-0.1-0.8-0.1
				C272,207.5,271.8,206.7,271.8,205.8L271.8,205.8z"/>
			<path class="st7" d="M274.9,206.7c0.8-0.1,1.5,0.3,2,1.1c-0.5,0.8-1.1,1.4-1.9,1.7c-0.2-0.2-0.4-0.3-0.7-0.5
				C274.2,208.2,274.5,207.4,274.9,206.7L274.9,206.7z"/>
		</g>
		<g>
			<path class="st7" d="M350.4,214.7l1.3-1c-0.9-0.9-2.9-0.7-4.5,0.3c-1.8,1.2-2.7,3.2-1.9,4.3c0.7,1.1,2.9,1.2,4.7,0
				c1.9-1.1,2.4-3.5,1.6-4.6L350.4,214.7c0.5,0.7,0.1,2-1,2.7c-1.1,0.7-2.5,0.7-3,0.1c-0.4-0.7,0.2-1.9,1.3-2.5
				C348.6,214.3,349.9,214.2,350.4,214.7L350.4,214.7z"/>
			<path class="st7" d="M351.2,209.1c0.7,0,1.3,0.4,1.7,1.1c-0.5,0.8-1,1.3-1.7,1.5c-0.2-0.2-0.4-0.2-0.6-0.4
				C350.5,210.6,350.7,209.8,351.2,209.1L351.2,209.1z"/>
			<path class="st7" d="M353.5,210.9c0.7,0.1,1.2,0.6,1.6,1.4c-0.6,0.7-1.2,1.1-2,1.1c-0.1-0.2-0.2-0.3-0.5-0.5
				C352.7,212.1,353,211.4,353.5,210.9L353.5,210.9z"/>
			<path class="st7" d="M356,213.7c0.5,0.6,0.6,1.2,0.2,2c-0.8,0.1-1.5,0-2.2-0.5c0-0.2,0-0.5,0-0.7
				C354.5,214,355.2,213.7,356,213.7L356,213.7z"/>
			<path class="st7" d="M356.6,208.6c-0.7,0.2-1.2,0.7-1.7,1.3c0.2,0.5,0.6,0.9,1.1,1.2c0.7-0.3,1.1-0.7,1.5-1.3
				c0.7,0.5,1.6-0.2,2-0.9c0.4-0.7,0.2-1.7-0.6-2.1c-0.7-0.4-1.7-0.2-2,0.6C356.7,207.7,356.6,208.2,356.6,208.6L356.6,208.6z"/>
		</g>
		<g>
			<path class="st7" d="M242.1,197.8l-0.7-0.8c1.5-1.3,3.1-1.2,4.3,0.9c1.1,2,1.5,3.2,0.6,4.7c-1,1.5-2.9,2-5.4-0.2
				c-2.4-2.3-1.5-3.9,0.4-5.5L242.1,197.8c-0.7,0.5-0.5,2,0.3,2.9c0.9,0.9,2.4,1.3,2.9,0.7c0.6-0.6,0.2-1.9-0.7-2.8
				C243.9,197.8,242.7,197.4,242.1,197.8L242.1,197.8z"/>
			<path class="st7" d="M244,192.5c-0.7-0.4-1.4-0.3-2.2,0.2c0,1,0.2,1.7,0.9,2.4c0.2-0.1,0.5-0.1,0.7-0.1
				C243.9,194.2,244.1,193.4,244,192.5L244,192.5z"/>
			<path class="st7" d="M240.3,193.3c-0.8-0.1-1.5,0.3-2,1.1c0.4,0.9,1,1.5,1.8,1.8c0.2-0.2,0.4-0.3,0.7-0.4
				C240.9,194.8,240.7,194,240.3,193.3L240.3,193.3z"/>
			<path class="st7" d="M236.8,195.3c-0.7,0.5-1,1.1-0.9,2c0.9,0.5,1.7,0.6,2.5,0.4c0.1-0.2,0.2-0.5,0.2-0.7
				C238.3,196.2,237.6,195.7,236.8,195.3L236.8,195.3z"/>
			<path class="st7" d="M237.9,190.3c0.7,0.4,1,1,1.3,1.7c-0.3,0.4-0.7,0.7-1.3,0.9c-0.6-0.4-0.9-1-1.1-1.6
				c-0.8,0.2-1.6-0.7-1.7-1.4c-0.2-0.8,0.2-1.7,1.1-2c0.7-0.2,1.6,0.3,1.9,1.1C238,189.5,238.1,189.9,237.9,190.3L237.9,190.3z"/>
		</g>
		<g>
			<g>
				<path class="st8" d="M341.5,214.2v-2.3l-1.8,1.7l-0.6,1.1l-2.3,1.5l-0.9-2l-0.2,2.7c0,1.1-1.1,3.3-1.3,4
					c-1.1,2.4-3.4,2.4-5.1,1.8l-0.1,1.1c7.4,1.6,5-4.1,8.4-6.3c0,0,0.3-0.5,0.5-0.7c1.7-1.2,4.8-1.6,6-1c0.3,0.2,0.6-1,0.8-1
					C344.9,214.3,342,214,341.5,214.2L341.5,214.2z"/>
				<path class="st8" d="M349,222.5l2.5,0.2c-1.1,0.5-2.2,0.6-3.3,1.1c-1.3,0.8-1.3,1.5-4.2,2.6l2,1.6c-1.2-0.2-3-0.6-3.8-0.7
					c-1.6,1.9-9.4,0.5-9.3,0.7v2.4c0,0.4-1.2-2.4-2.8-2.9c-1.5-0.6-3.8-0.7-3.9-0.2l1.1-1.6c6,0.4,8.7,2.2,15-0.2
					c2.8-1.1,5.2-3.6,5.2-4.8c0.1-0.2,1-0.2,1.4-0.5C349.5,220.5,349.5,222,349,222.5L349,222.5z"/>
				<path class="st8" d="M338.8,223.6c-1.1,0-2.4-0.4-3.1-0.2c-1.3,1.4,0.6,1.9,1.1,1.5L338.8,223.6L338.8,223.6z"/>
				<path class="st8" d="M339.4,218.4c-0.7,0.9-1.9,1.5-2.2,2.1c0.2,2,1.8,0.9,1.9,0.2L339.4,218.4L339.4,218.4z"/>
				<path class="st8" d="M343.3,219.1c-0.9,0.8-2,1.3-2.4,1.9c-0.1,1.9,1.6,1,1.8,0.4L343.3,219.1L343.3,219.1z"/>
				<path class="st8" d="M243.1,209.7c-1,0.2-1.3-0.4-2.2-0.4c0.5,1.9,1.1,2.4,2.5,2c1.1,1.1,1,1.8,3.5,3.5
					c-0.7,0.4-1.6,0.8-2.3,1.1c1.1,0.7,2.9,0.8,3.8,0.2c0.4,0.7,1.7,1.4,3,1.7c0.7,0.2-1.8,2-1.5,2c1.5,0.2,2.5-0.2,3.2-1.6
					c0.2,0,5.1,0.7,5.1,0.7c0.2-0.5,0-0.7,0.2-1.6c-6-1-4.4,0.6-9.7-3c-2.3-1.5-3.8-4.5-3.8-5.5c0-1.1,3.6-4.7,4.6-4.8
					c1.5-0.4,2.7,0.7,4.8,2c1.9,1.2,4,5.6,4.6,7.8l1.3-1c-0.5-1.8-0.6-2.5-0.8-3.1c-0.3-0.6,1.4-1.7,0.5-4.2
					c-0.6,0.7-1.1,1.4-1.6,2.1c-1.1-1.7-3.2-3.4-6-5.1c0.2-1.3-0.7-2.4-2.5-3.4l0.2,3.2C246.8,202.1,242.1,209,243.1,209.7
					L243.1,209.7z"/>
				<path class="st8" d="M254,213.5c1.1,0.3,2.4,0.2,3,0.6c1,1.6-1,1.7-1.5,1.2L254,213.5L254,213.5z"/>
				<path class="st8" d="M254.3,207.8c0.6,1.1,1.6,1.9,1.6,2.6c-0.6,1.9-1.9,0.4-1.9-0.2L254.3,207.8L254.3,207.8z"/>
				<path class="st8" d="M250.3,206.4c0.6,0.9,1.6,1.7,1.8,2.4c-0.3,1.8-1.8,0.6-1.8-0.1V206.4L250.3,206.4z"/>
				<path class="st8" d="M249.1,211c0.9,0.4,2,0.6,2.4,1c0.5,1.5-1.1,1.1-1.3,0.7L249.1,211L249.1,211z"/>
				<path class="st8" d="M284.2,227.4c-0.7,0.9-0.4,0.7-1.4,1.1c1.2,0.2,2.3,0,3.5-1c1.6,0.2,4,0.2,5.2,0.4c0.2,0.9-0.2,1-0.6,1.9
					c1.5-0.2,2.6-0.7,2.9-1.7c0.9,0.4,3,0.2,4.4-0.5c0.7-0.3,0.1,2.1,0.2,2c1.4-1,2.2-1.1,1.9-2.9c0.2-0.1,2.4-0.6,2.4-0.6
					c-0.1-0.6,0.3-1.1-0.1-2.2c-6.2,2.9-8.6,2.4-13.9,2c-1.1-0.1-4.8-0.8-6-1.5c-2.3-1.4-0.7-7,0-7.8c1.1-1.4,1.8-2.4,5.8-2.3
					c2.5,0.1,7.3,2.9,9.5,4.4l0.4-1.8c-1.7-1.2-2.3-1.9-2.9-2.1c-0.7-0.2,0-2.5-2.6-4.1c0,1,0.1,2,0.1,2.9c-1.1-0.3-3.3-1.1-4.3-1
					c-0.2-1.3-2.5-2.2-3.8-2.4c0,0,1,2.2,0.5,2.3c-0.6,0.1-1.5,0.7-2,0.8c-1.4-0.5-1.3-1-3.7-0.6l1.8,2.4
					C279.5,217.6,278.3,226.7,284.2,227.4L284.2,227.4z"/>
				<path class="st8" d="M292.8,220.1c1.2,0.1,2.5-0.2,3.3,0c1.2,1.5-0.7,1.9-1.3,1.5L292.8,220.1L292.8,220.1z"/>
				<path class="st8" d="M298.1,221.3c1.2-0.2,2.4-0.9,3.2-0.9c1.6,1.1-0.2,2.1-0.8,1.9L298.1,221.3L298.1,221.3z"/>
				<path class="st8" d="M290.6,216.1c1.1,0.5,2.5,0.6,3.1,1.1c0.7,2-1.3,1.6-1.7,1.1L290.6,216.1L290.6,216.1z"/>
				<path class="st8" d="M285.9,218.8c1.2-0.2,2.5-0.9,3.3-0.8c1.7,1.1-0.2,2.1-0.9,1.8L285.9,218.8L285.9,218.8z"/>
				<path class="st8" d="M288.7,223.4c1.1-0.2,2.3-1,2.9-0.9c1.6,1-0.1,1.9-0.7,1.7L288.7,223.4L288.7,223.4z"/>
				<path class="st8" d="M260.6,221c-0.2,1.2-0.8,2.3-2.1,2c1.4,1.5,2.4,0.2,3.6-0.7c1.4,0.5,2.9,1.3,5.9,1.6
					c-0.4,0.7-0.7,1.4-1.2,2.1c1.7-0.1,3.1-1,3.1-1.7c1,0.7,9-1,8.6-1.5c-0.2-0.3,0.1-0.7-0.2-1.6c-5.8,1.6-4.3,1.7-10.6,1.3
					c-2.5-0.2-5.4-2.2-5.9-3.2c-0.6-1,1-5.9,1.7-6.4c1.1-1,3.9-0.4,3.8-0.8c0,0,0.4-1.7,0.2-1.6c-0.7,0.2-1.6,0.2-2.8,0.2
					c-0.5-1.2-0.6-1.4-2.7-1.4c0.7,0.7,0.8,1.4,1.2,2C260.3,212.6,259.5,220.9,260.6,221L260.6,221z"/>
				<path class="st8" d="M274.9,218.9c1.1-0.1,2.4-0.7,3.1-0.6c1.5,1.2-0.4,2-1,1.6L274.9,218.9L274.9,218.9z"/>
				<path class="st8" d="M275.7,213.4c1.1,0.4,4.2,2.4,4.2,3.3c-0.2,0.2-0.5,0.8-0.9,0.8c-0.9-1.1-2.1-2.1-3.7-2.5L275.7,213.4
					L275.7,213.4z"/>
				<path class="st8" d="M264.5,216.5c1.1-0.2,2.3-0.7,2.9-0.6c1.5,1.2-0.3,1.9-0.9,1.6L264.5,216.5L264.5,216.5z"/>
				<path class="st8" d="M268.1,220.2c1,0.1,2-0.2,2.5,0.1c1.1,1.2-0.6,1.5-1,1.1L268.1,220.2L268.1,220.2z"/>
				<path class="st8" d="M309.3,227.9c-0.7,1.1-1.7,2-1.9,2.9c0.5,2,2,0.5,2-0.2L309.3,227.9L309.3,227.9z"/>
				<path class="st8" d="M315.4,222.5c-1.1,0.7-2.6,0.9-3.2,1.4c-0.7,2.1,1.5,1.6,1.9,1L315.4,222.5L315.4,222.5z"/>
				<path class="st8" d="M322.4,217.9c-1.4,0.2-2.9,0-3.8,0.3c-1.4,2,1.1,2.2,1.6,1.6L322.4,217.9L322.4,217.9z"/>
				<path class="st8" d="M321.6,223c-1.4,0-2.9-0.6-3.7-0.3c-1.7,1.6,0.6,2.3,1.3,1.9L321.6,223L321.6,223z"/>
				<path class="st8" d="M316.8,217.2c-1,0.7-2.2,1-2.7,1.6c-0.4,2,1.4,1.4,1.7,0.7L316.8,217.2L316.8,217.2z"/>
				<path class="st8" d="M319.7,214.9c-0.7,0.1-1.6-0.2-2,0c-0.9,1,0.3,1.2,0.7,1L319.7,214.9L319.7,214.9z"/>
				<path class="st8" d="M305.7,225.5l-1.7-1.6c-1.5,3.8-0.8,8.6,0.1,13.2c2,0.1,5.5-0.1,8.2-0.3c-0.2-7,2.6-6.9,7.4-8.3
					c1,0.2,5.5,0.3,5.4,0.3c-0.2-0.3-1.2-0.9-1.5-1.6c-0.2-1,1.9-2,2.3-2.3c2.5-1.7,3-4.7,2.5-6.6c-0.1-0.1-0.2-0.2-0.2-0.3
					c-0.6,0.3-1.5,0.4-2.1,0.8c0.7,2.8,0.3,3.7-4.8,7c-1.6,1.1-6.7,2.6-7.8,3.3c-2.7,1.5-2.6,3.4-2.9,6.4c0,0.2-5.5,0-5.5-0.2
					C305.2,231.4,303.7,228.9,305.7,225.5L305.7,225.5z"/>
			</g>
		</g>
		<path class="st9" d="M289.7,236.7c-0.7-0.2-1.6-1.2-1.5-2.2c0.1-1.1,1.1-1.4,1.7-1.1c0.6,0.2,1.2,0.2,1.1,1.1
			c0,0.4,1.1,0.3,1.1-0.1c0.2-1.5-0.8-2.4-2-2.5c-1.3-0.1-2.9,0.2-3.3,2c-0.2,0.8,0.3,2.3,0.7,2.8c-0.7,3.8-0.6,5.2,1,8.3
			c-0.4,0.5,0-0.1-0.2,0.6c-0.2,0.7-0.5,1.9-0.1,2.8c0.9,1.8,2.4,1.8,3.7,1.4c1.3-0.4,1.9-2,1.5-3.4c-0.2-0.7-1.4-0.4-1.1,0.3
			c0.3,0.8-0.2,1.3-0.7,1.6c-0.7,0.4-1.6,0.3-2-0.7c-0.2-1.1,0.5-2,1.1-2.4C289.5,243.7,288.2,239.1,289.7,236.7L289.7,236.7z"/>
		<path class="st9" d="M317.9,235.8c0.7-0.3,1.1-1.7,1-2.6c-0.2-1-1.3-1.1-1.9-0.8c-0.6,0.3-1.1,0.8-0.8,1.6c0.2,0.7-1.4,1-1.6,0.2
			c-0.4-1.3,0.8-2.9,2-3.1c1.2-0.3,3.3,0,3.8,1.6c0.2,0.8,0,2.6-0.7,2.9c1.3,3.5,1.4,4.5,0.3,7.6c0.6,0.4,0.3,0,0.7,0.5
			c0.3,0.6,0.8,1.7,0.5,2.6c-0.5,1.8-2,2-3.3,1.9c-1.3-0.2-2.2-1.6-2-2.9c0.2-0.7,1.3-0.7,1.2,0.1c-0.2,0.8,0.4,1,1.1,1.2
			c0.7,0.2,1.3-0.1,1.4-1.1c0.1-1.1-0.6-1.9-1.2-2.1C319.1,241.6,319.8,237.8,317.9,235.8L317.9,235.8z"/>
		<path class="st9" d="M301.9,233.8c-2.8-0.3-5.9,0-8.6,0.5c0.1-0.3-0.3-0.9-0.1-1.7c2.7-0.6,5.8-0.7,8.6-0.5
			C301.8,232.5,301.9,233.5,301.9,233.8L301.9,233.8z"/>
		<path class="st9" d="M294.2,248.2c5.4,3.2,18.9,1.1,21.5-0.2c-0.1,0.3,1.5,0.3,1.2,1.1c-3.2,2.9-22,2.9-23.3,1.1
			C293.7,249.9,294.1,248.5,294.2,248.2L294.2,248.2z"/>
		<path class="st9" d="M297,235.8c5.1,5.4,3,8.4,8,12.9c-0.4,0-1-0.1-1.3,0.1c-5.4-5.1-4-9-8.9-13.4
			C295.2,235.2,296.7,235,297,235.8L297,235.8z"/>
		<path class="st9" d="M301.3,235.2c4.6,5.1,2.9,8.7,7.8,13.3c-0.4,0-1.1,0.4-1.7-0.5c-5-5.3-3.5-8.6-8.3-13
			C299.5,234.9,300.3,234.9,301.3,235.2L301.3,235.2z"/>
		<path class="st9" d="M307.4,238.7c1.9,1.1,1.1,5.5,5.6,9.4c-0.3,0-0.7,0.2-1.2-0.3c-4.2-3.4-2.9-5-6-9.1
			C306.1,238.6,306.7,238.5,307.4,238.7L307.4,238.7z"/>
		<path class="st10" d="M332.7,243.1l-0.2,1.5c1.8,0,2.7-0.6,2.9-2.8c0.2-1.8-0.7-3-2.1-3.2c-1.4-0.2-2.8,0.1-3.2,2
			c-0.5,1.9,0.8,3.7,2.4,3.9L332.7,243.1c-0.7-0.2-1.2-0.8-1.1-2c0-1.1,1-1.4,1.6-1.1c0.7,0.2,1.2,0.7,1,1.7
			C333.9,242.7,333.5,243.1,332.7,243.1L332.7,243.1z"/>
		<path class="st7" d="M341.8,231.1c-2.4-0.6-4.1-0.7-6.5,0.2c-1.8,1.3-1.1,3.3,0.5,3.8c2.7,0.7,4.1,0.6,6.7-1.7
			c-1.5-0.2-3.9-0.2-5.4-0.5c0.1,0.1-0.5,0.9,0.1,1.5c-0.4-0.1-0.8,0.2-1.1-0.4c-1.3-3.2,3.7-2,6-1.8
			C342.1,232.1,341.9,231.2,341.8,231.1L341.8,231.1z"/>
		<path class="st10" d="M322.2,234.9c3.5-0.2,7.3-1,10.6-2c0,0.3,0,0.6,0.1,0.8c-3.3,1.1-7.3,2-10.8,2.4
			C322.1,235.8,322.2,235.2,322.2,234.9L322.2,234.9z"/>
		<path class="st10" d="M323.3,245.3c2-1.1,4.1-1.9,6-2.3c0-0.3,0-0.7,0-1c-1.7-0.1-4.2,0.5-6.4,1.5
			C322.9,243.9,323.2,245.1,323.3,245.3L323.3,245.3z"/>
		<path class="st10" d="M329.2,239.5c-3.6-0.4,1.5-2.9,4.7-3.9c-0.2-0.2-0.3-0.5-0.4-0.7c-4.4,0.9-11.7,4.8-4.5,5.8
			C329.3,240.9,329.1,239.3,329.2,239.5L329.2,239.5z"/>
		<path class="st7" d="M271.5,247.1c2-1.4,3.6-2.1,6.3-2c2,0.7,2,2.9,0.7,3.9c-2.2,1.7-3.6,2-6.9,0.6c1.4-0.7,3.7-1.5,5-2.4
			c-0.1,0.2,0.7,0.8,0.4,1.5c0.3-0.1,0.8,0,0.9-0.7c0.2-3.7-4.2-0.7-6.3,0.3C271.5,248.2,271.5,247.2,271.5,247.1L271.5,247.1z"/>
		<path class="st10" d="M276.5,230l-0.2,1.5c1.8,0,2.8-0.6,2.9-2.8c0.2-1.8-0.7-3-2-3.3c-1.5-0.2-2.8,0.2-3.3,2
			c-0.4,2,0.9,3.8,2.4,4L276.5,230c-0.7-0.2-1.2-0.9-1.2-2c0.1-1.1,1.1-1.4,1.7-1.1c0.7,0.3,1.2,0.8,1,1.8
			C277.7,229.6,277.3,230,276.5,230L276.5,230z"/>
		<path class="st10" d="M264.4,241.3l-0.2,1.5c1.8,0,2.7-0.6,2.9-2.8c0.2-1.8-0.7-3-2.1-3.3c-1.4-0.2-2.8,0.2-3.3,2
			c-0.4,2,0.9,3.8,2.4,4L264.4,241.3c-0.7-0.2-1.2-0.8-1.1-2c0-1.1,1-1.4,1.6-1.1c0.7,0.2,1.2,0.7,1,1.7
			C265.6,240.9,265.2,241.3,264.4,241.3L264.4,241.3z"/>
		<path class="st7" d="M253.8,226.7c2.4-0.1,4.2,0.2,6.3,1.7c1.5,1.6,0.3,3.4-1.3,3.5c-2.9,0.2-4.1-0.4-6.1-3.2
			c1.5,0.2,3.8,0.7,5.4,0.7c-0.2,0.1,0.2,1-0.4,1.4c0.3,0.1,0.7,0.4,1.1-0.1c2-2.9-3.1-2.9-5.5-3.2
			C253.3,227.6,253.8,226.8,253.8,226.7L253.8,226.7z"/>
		<path class="st10" d="M276.4,232.6c0.4,2.4-11.8-3.7-14.2-3.2c-0.2,0.3,0,0.7,0,1c4.5,0.3,15.3,7.1,15.4,2.5
			C277.7,232.6,276.4,232.9,276.4,232.6L276.4,232.6z"/>
		<path class="st10" d="M285.3,235.6c-2-0.9-4.6-3-6.1-4.2c-0.2,0.2-0.2,0.5-0.5,0.7c0.4,2,4.1,4.4,6.7,4.7
			C285.7,236.5,285.2,235.7,285.3,235.6L285.3,235.6z"/>
		<path class="st10" d="M286.2,248.4c-2-1.2-3.4-1.5-5.6-0.9c-0.1-0.2-0.2-0.9-0.2-1.1c1.7-1.1,4-1.1,6,0.6
			C286.4,247.3,286.2,248.2,286.2,248.4L286.2,248.4z"/>
		<path class="st10" d="M267.5,236.5c0.8-1.5-2.4-3-6.1-4.1c0.2-0.2,0.4-0.6,0.6-0.8c4.4,0.9,10.4,4.3,6.2,6
			C268,237.9,267.6,236.3,267.5,236.5L267.5,236.5z"/>
		<path class="st10" d="M279.3,244.6c4.8-3.3-7.2-4.8-10.5-4.6c0.1-0.2-0.1-0.7-0.1-1c4.7-0.8,17.5,1.5,11.6,6.4
			C280.1,245.7,279.5,244.4,279.3,244.6L279.3,244.6z"/>
		<path class="st8" d="M301.1,253.6c0.7-0.1,1.3-0.1,2-0.1c-0.3,2.3,0.1,4.7,0.7,7.1c-0.6,0-1.4-0.2-1.9-0.1
			C301.3,258.3,301.1,256,301.1,253.6L301.1,253.6z"/>
		<path class="st8" d="M301.1,261c0.6,1.1,0.9,1.1,2,1.2c-2.5,1.8-7.5,4.2-8,7.7c-0.6-0.6-0.7-1.5-1.3-2.1
			C294.4,265.2,298.5,263.3,301.1,261L301.1,261z"/>
		<path class="st9" d="M306.5,261.5c0.5,0.4,0.6,0.2,1.8,0.2c-1.6,2.6-6.1,5.5-7.2,8.6c-0.6-0.6-0.5-1.5-1.1-2.1
			C300.6,265.6,303.9,263.8,306.5,261.5L306.5,261.5z"/>
		<path class="st9" d="M318.6,265.7c-0.2,0.7-1.9,0.2-1.5,1.3c-3-0.5-5.1-3.3-8.3-3c0.2-0.8,0.5-1.1,0.7-1.8
			C312.3,261.7,315.5,264.2,318.6,265.7L318.6,265.7z"/>
		<path class="st8" d="M316.8,260.2c-0.2,0.7-1.5-0.1-1.1,1.1c-3.1-0.4-2.8-2-6-1.8c0.2-0.8,0.7-1.1,0.9-1.9
			C313.3,257.2,313.7,258.7,316.8,260.2L316.8,260.2z"/>
		<path class="st8" d="M293.6,261.2c0.2,0.7,1.6-0.2,1.3,1c3-0.7,2.3-2.4,5.6-2.5c-0.4-0.7,0.1-1.1-0.2-1.8
			C297.6,257.6,296.6,259.4,293.6,261.2L293.6,261.2z"/>
		<path class="st8" d="M318.9,261.6c0,0.4-0.3,0.2-0.2,1.1c-1.1-0.4-1.1-0.6-2.3-0.4c0.1-0.6,0-0.7,0.1-1.3
			C317.1,260.6,317.6,260.5,318.9,261.6L318.9,261.6z"/>
		<path class="st8" d="M291.4,262.9c0.1,0.6,0.4,0.3,0.3,1.3c1.1-0.5,1.2-0.7,2.5-0.7c-0.2-0.7,0-0.8-0.2-1.5
			C293.3,261.7,292.7,261.6,291.4,262.9L291.4,262.9z"/>
		<path class="st8" d="M313.2,268.3c-0.2,0.7-1.9,0-1.5,1.1c-3.1-0.5-2.8-2.4-6.1-2.2c0.3-0.8,1.1-0.7,1.4-1.5
			C309.7,265.3,310.1,266.9,313.2,268.3L313.2,268.3z"/>
		<path class="st9" d="M308.8,253.6c-0.7-0.1-1.4-0.1-2.1-0.1c0.3,2.3,0,4.7-0.7,7.1c0.6,0,1.4-0.2,2-0.1
			C308.5,258.3,308.8,256,308.8,253.6L308.8,253.6z"/>
		<path class="st8" d="M299.9,253.9c0.1,0.7,0.2,0.7,0.2,1.4c-2.4-0.1-7.6,2.9-9,4.2c-0.1-0.2-1.6-2.9-2.3-3.8l-0.7,1.6l-2.8-0.1
			l-4.1-3.9l0.9,4.1l-1.8,0.1l-5.5-3.7l1.9,3.4l-2.4,0.2l-5.6-2.3l1.6,2.2l-4.9,1.5l9.2-0.4l-2.4,3.8l4.3-2.9l4.6-0.2l-2.9,4.7
			l4.7-4.7l3.6-0.2l-1.1,4l3.8-4.8l1-0.3l0.8,1.5l-5.7,5.4l-1.6,0.2l1.5-4.3l-2,0.3l-3.8,4.3l-2.7-0.2l-0.4-1.5l2.8-3.3l-2.4,0.5
			l-3.8,2.4l-3-0.2l2.8-3.5l-3.9,0.2l-0.4,0.8l-5.3-0.3l0.5-1.8l4.2-2.3l-0.7-1.4l2.4-1l5.6,2l-2.4-3.5l3.4-0.2l4.7,3.4l-1-4.7
			l2.5-0.1l4,4.7l1-2l2,0.4l2.4,1.7C293.4,254.9,297.4,254.2,299.9,253.9L299.9,253.9z"/>
		<polygon class="st8" points="265.9,253.4 260.5,249.3 260,244.8 258.3,244.4 257.8,246.4 256.9,245.1 256.5,240.3 253.2,237.8 
			252.8,242.6 251.2,240.4 250.8,235.3 248.5,233.8 248.1,237.3 245.2,234.1 244.1,235.3 245,237.5 245.4,238.3 241.9,238.7 
			241,240 243.5,240.5 246.7,243.1 241.1,242.9 243.2,245.2 249.6,246.5 250.3,247.8 244.5,249.1 248.1,251.8 253.9,251 
			254.1,252.9 262,252.2 260.2,251 255.6,251.2 255.6,249.5 249.2,250.3 248.2,249.7 252,248.8 253.2,247.6 250.1,244.9 
			245.3,244.3 249.4,244.3 248.9,241.8 244.5,239.8 246.6,239.5 246.5,237.4 248.9,240.8 249.7,236.9 250.1,242.1 253.8,246.1 
			254.3,240.6 255.4,242.4 255.7,247.6 257.8,249.3 259.1,247 259.4,250.2 265.2,254.4 265.9,253.4 		"/>
		<path class="st9" d="M267.1,252.9c-0.7-1.4-1.4-2.9-0.2-4c0.2-0.3,0.2-0.7-0.2-1.2c-1.1,0.1-1.9,0-3.4,0.8
			c-0.6,0.4-0.8,1.2-0.2,1.6C265.2,250.6,265.5,252.8,267.1,252.9L267.1,252.9z"/>
		<path class="st9" d="M264.2,255.3c-1.5,0.1-3.2,0.2-3.5,1.8c-0.2,0.3-0.5,0.6-1.1,0.5c-0.5-0.9-1-1.6-1-3.3c0-0.7,0.6-1.4,1.2-1
			C261.4,254.9,263.3,254.1,264.2,255.3L264.2,255.3z"/>
		<path class="st9" d="M264.2,247.5c0.7,0,1.2-0.6,1.2-1.2c0-0.7-0.6-1.3-1.2-1.3c-0.7,0-1.3,0.6-1.3,1.3
			C262.9,246.9,263.5,247.5,264.2,247.5L264.2,247.5z"/>
		<path class="st9" d="M256,256.8c-0.4-0.6-0.2-1.4,0.4-1.7c0.7-0.3,1.4-0.2,1.7,0.5c0.4,0.6,0.2,1.3-0.4,1.7
			C257,257.6,256.3,257.3,256,256.8L256,256.8z"/>
		<path class="st9" d="M242.3,235.3c-0.2-1.5-0.4-3.2,1.1-3.8c0.2-0.3,0.4-0.7,0.2-1.3c-1-0.2-1.8-0.6-3.5-0.2
			c-0.7,0.2-1.1,0.9-0.7,1.4C241.4,232.6,241,234.7,242.3,235.3L242.3,235.3z"/>
		<path class="st9" d="M240.2,238.2c-1.5-0.4-3.2-0.7-3.9,0.7c-0.3,0.2-0.7,0.3-1.2,0.1c-0.2-1-0.5-1.8,0-3.5
			c0.3-0.7,1.1-1.1,1.5-0.5C237.6,236.9,239.7,236.8,240.2,238.2L240.2,238.2z"/>
		<path class="st9" d="M242.2,226.9c-0.7-0.2-1.4,0.2-1.6,0.8c-0.2,0.7,0.2,1.4,0.8,1.5c0.7,0.2,1.4-0.1,1.6-0.7
			C243.2,227.9,242.8,227.1,242.2,226.9L242.2,226.9z"/>
		<path class="st9" d="M231.8,237.1c-0.1-0.7,0.3-1.3,1-1.5c0.7-0.2,1.4,0.2,1.6,1c0.1,0.7-0.3,1.3-1,1.5
			C232.6,238.2,232,237.8,231.8,237.1L231.8,237.1z"/>
		<polygon class="st8" points="243.3,237.8 243.1,236.3 241.5,236.1 238.1,231.9 238.7,224.6 237.4,223.3 235.5,225.9 235.8,217.7 
			233.3,217.1 231.7,221.8 230.7,221.2 230.7,216.1 229.2,215.5 228.1,218.7 225.7,215.9 224.6,216.2 225.1,217.1 222.2,217.4 
			224.3,219.9 220.3,220.3 221.9,222.5 227,223.6 228.5,224.7 223.2,224.5 223.8,227 227,228 230.4,228.6 231.7,229.6 228.3,229.7 
			228.4,230.7 231.5,232.3 238.1,234.8 236.6,232.6 231.7,230.7 234.3,230.4 232.4,227.8 225.5,225.9 231.2,225.8 228.3,222.7 
			223.2,221.4 227,221.6 224.6,218.4 226.5,219.2 226,217.8 228.2,220.4 229.5,218.2 229.5,222.3 232.6,224.6 234.3,218.9 
			234.1,226 234.7,228.4 237.2,226.1 236.5,232.4 238.2,235 240.7,237.3 243.3,237.8 		"/>
		<path class="st9" d="M227.3,213.8c0.3-1.5,0.8-3.1,2.4-3.1c0.3-0.2,0.6-0.5,0.6-1.1c-0.8-0.6-1.4-1.2-3.1-1.6
			c-0.7,0-1.5,0.4-1.1,1.1C227.4,211,226.3,212.8,227.3,213.8L227.3,213.8z"/>
		<path class="st9" d="M223,215.2c-1.1-1-2.5-2-3.8-1.1c-0.4,0-0.7,0-1.1-0.6c0.2-1,0.4-1.8,1.6-3.1c0.5-0.5,1.4-0.5,1.5,0.2
			C221.2,212.9,223.3,213.6,223,215.2L223,215.2z"/>
		<path class="st9" d="M230.2,205.9c-0.5-0.4-1.3-0.3-1.7,0.2c-0.5,0.6-0.4,1.4,0.2,1.8c0.5,0.4,1.3,0.4,1.7-0.2
			C230.8,207.2,230.8,206.4,230.2,205.9L230.2,205.9z"/>
		<path class="st9" d="M216,210.5c0.2-0.7,0.8-1.1,1.5-0.9c0.7,0.2,1.1,0.8,1,1.5c-0.2,0.7-0.9,1.1-1.6,0.9
			C216.2,211.9,215.8,211.2,216,210.5L216,210.5z"/>
		<polygon class="st8" points="225.8,215 223.6,209 224.6,206.8 224.6,205.4 223,205.7 226.3,202.8 226.4,199.7 222.4,201.2 
			223.3,199.8 226.8,196.4 227.2,193.7 223,195.8 223.5,194.4 225.5,192.2 224.7,189.5 223.3,190 221.5,191.8 221,189.9 
			218.9,191.3 218.8,196.6 216.2,193.8 215.2,197 218,202 214.2,201 214.5,203.9 216.7,204.6 219,206.3 218.7,207.6 222.3,210.3 
			222.4,208.6 220,207.2 220.7,205.8 216.4,203.2 219.8,203.8 219.7,201.8 216.6,196.5 219.7,199.3 220.2,191.8 221.1,193.6 
			223.8,192 221.4,195.3 221.3,198.2 224.6,196.5 220.8,200.6 221.4,202.8 224.8,202.2 221.7,205 222.1,207 223.6,207 222.4,208.6 
			222.4,210.3 224.6,215 225.8,215 		"/>
		<path class="st8" d="M309.8,254c2.5-0.1,7.7,1.5,9.9,2.4c3.1,0.9,10.2-5.9,21-6.5l0.1,0.2c-0.2-0.2,0.7,0.1,0.8,0.2
			c-6,0.3-9.2,4.6-18,6.7c-0.5,0.7,0.2,0.4,0.4,0.7c6.6,1,9.9-3.4,16.7-6.1c0.2,0,1.1-0.5,2.3-0.1c-2.9,2.8-11.7,8.3-18.8,8.4
			c-2.4-0.1-11-4.1-14.6-4.2C309.6,255.1,309.6,255,309.8,254L309.8,254z"/>
		<path class="st8" d="M337.1,247.1c-0.4-0.4-1.4-0.6-2-0.6c-2.4,0.4-4.5,1.7-6.5,2.2c-3.4,0.8-5,3.3-8.3,5.7
			c-0.9,0-1.6-0.2-2.6-0.2c0,0.6,0.8,0.9,0.9,1.1c0.9,0.5,2.1,0.7,2.9,0.2c5.8-3.3,11-5.4,16.8-6.6c-0.4-0.2-0.8-0.3-1.2-0.4
			c-0.7-0.6-4.2,0.5-12.9,4.2c0-0.1,0.2-0.2,0.1-0.2c2.6-1.6,2.8-2.5,4.8-2.9C331.5,249.2,335.1,247,337.1,247.1L337.1,247.1z"/>
		<path class="st8" d="M341.8,256.5c-0.5-0.4-1-0.8-1.6-0.9c-3.1,0.6-4.1,2.9-10.9,4.6c-0.3,0-1.3,0.7-2.4,0.7
			c-1.1,0.1-2.6,0.1-3.1,0.1c-0.1,0.6,0.4,0.7,1.2,1.2c0.9,0.4,1.3,0.5,1.9,0.7c6,1.7,12-4,17.8-5.2c-0.4-0.2-0.8-0.3-1.2-0.5
			c-3.5-0.7-11.7,5.5-13.7,4.5c0-0.2-0.8-0.4,0.2-0.6C332.5,260.8,337.1,257.1,341.8,256.5L341.8,256.5z"/>
		<path class="st9" d="M348,250.6c-0.6-0.4-1.2-0.7-2-0.8c-0.3,0.4-0.5,1-0.5,1.5c0.6,0.4,1.1,0.6,1.8,0.7c-0.1,0.8,1,1.3,1.8,1.3
			c0.8-0.1,1.5-0.7,1.5-1.5c0-0.8-0.7-1.5-1.5-1.5C348.8,250.3,348.2,250.4,348,250.6L348,250.6z"/>
		<path class="st9" d="M342,244.1c-0.2,0.7-0.1,1.4,0.1,2.1c0.2,0.1,0.2,0.7,0.5,0.7c0.2,0,0.8-0.8,1.1-1c0.2-0.7,0-1.2-0.2-1.9
			c0.7-0.3,0.7-1.5,0.3-2.2c-0.3-0.7-1.2-1.1-2-0.7c-0.7,0.4-1.1,1.4-0.7,2C341.4,243.5,341.6,244,342,244.1L342,244.1z"/>
		<path class="st8" d="M343.1,248.8c1.1-2.3,2-2.9,4.7-3.8c6.6-9.4,10-10,14.8-15.6c0.2,1.8-0.7,2.1-0.8,2.4
			c-2.9,3.8-4.8,2.4-11.3,11.4c-0.1,0.9,0.4,0.3,0.7,0.4c6.2-5.1,10.4-8.7,12.6-13.1c0.5,1.3,0.3,2.8-1.5,5c-2.9,3.5-5.8,5.6-9.9,9
			c-2,2-8.1,2.7-7.8,5.4C343.9,249.7,343.8,249.4,343.1,248.8L343.1,248.8z"/>
		<path class="st8" d="M356.2,228c-2.2,3.6-4.8,5.1-5.8,5.8c-4.2,3-2.3,6.4-3.3,10c1-0.6,0.4-1.4,1.8-2c3.6-5.2,2.7-3.5,6.3-7.3
			c0.6-0.6,1.5-3.3,0.6-2.8c-6,7.5-6.7,7.3-6.8,8.2c-0.1-0.2-1.2,0.8-0.3-0.7c0.5-4.2,2.7-4.5,2.9-4.7c2.4-1.9,2.7-2.6,4-3.9
			C356.2,229.9,356.2,228.2,356.2,228L356.2,228z"/>
		<path class="st8" d="M365.3,234.9c-3.1,4.3-9.4,9.3-10.5,10c-0.3,0.2-0.4,0.5-1,0.8c-0.8,0.7-3.1,1.2-3.6,1.5
			c0.2,0.5,1.4,0.2,2.4,0.5c1,0.1,1.2,0,1.9-0.1c2.2,0.7,4.5-1,7-3.1c2-1.7,3.8-3.7,5.3-6c0.1-0.1,0.3-1.5,0.2-2.3
			c-3.3,5.5-7.1,7.2-10,9.7c-0.7,0.3-1.9,0.1-0.7-0.7c5-3.3,5.5-4.4,8.2-8.2C364.8,236.7,365,235.2,365.3,234.9L365.3,234.9z"/>
		<path class="st9" d="M370.4,228.7c-0.7-0.2-1.4-0.1-2.1,0.1c-0.1,0.5-0.1,1.1,0.2,1.6c0.7,0.2,1.3,0.1,2-0.1
			c0.2,0.7,1.4,0.7,2.1,0.4c0.7-0.3,1.1-1.2,0.8-2c-0.3-0.7-1.3-1.1-2-0.7C371,228,370.6,228.4,370.4,228.7L370.4,228.7z"/>
		<path class="st9" d="M361.2,224.9c0.2,0.7,0.5,1.3,1.1,1.9c0.2-0.1,0.5,0.6,0.7,0.5c0.3-0.2,0.5-1.1,0.7-1.4
			c-0.2-0.7-0.6-1.1-1-1.6c0.6-0.6,0.1-1.6-0.6-2.1c-0.7-0.5-1.6-0.5-2.2,0.2c-0.5,0.7-0.4,1.6,0.2,2.1
			C360.4,224.6,360.9,224.9,361.2,224.9L361.2,224.9z"/>
		<path class="st8" d="M364.5,229.8c0.1-2.5,0.7-3.5,2.8-5.3c1.3-11.7,6.3-17.9,7.3-17.9c-3.4,5.3-0.2,2.9-5.1,13.2
			c-0.8,2.6,0.8,1.4,1.1,1.3c2.6-3.1,4.3-10.9,5.8-17.1c1,0.9,1.4,3.3,0.7,6c-1.2,4.4-1.8,9.2-5.5,12.2c-1.1,2.6-6.4,5.7-5.1,8.1
			C365.5,230.3,365.3,230.1,364.5,229.8L364.5,229.8z"/>
		<path class="st8" d="M368.8,206.1c-3.2,5.3-7.2,11.2-2.6,16.9c0.7-0.8,0.4-1.4,0.2-3.3c2.5-5.6,4.7-13.2,4.4-12.9
			c-1.6,2.9-3.3,6.9-4.9,11c-0.1-0.1-1.1,1.8-0.7,0.2C365.5,212.5,368.3,210.5,368.8,206.1L368.8,206.1z"/>
		<path class="st8" d="M380.3,209.2c-4.1,2-2.1,5.1-6.7,12.1c-0.9,0.9-2.2,2.9-3.2,3.9c0.3,0.4,1.4-0.3,2.4-0.5
			c0.9-0.4,2.7-1.5,3.3-1.8c2.1-2.9,5.9-10.3,5.2-13.4c-1.9,6.4-4.6,11.1-5.2,11.7c-2.6,1.6-2.9,2.7-1-0.4
			C378.3,215.7,378,212,380.3,209.2L380.3,209.2z"/>
		<path class="st9" d="M380.4,201.4c-0.7,0.1-1.3,0.3-2,0.7c0,0.5,0.2,1.1,0.7,1.5c0.7-0.1,1.2-0.3,1.8-0.7c0.5,0.7,1.6,0.3,2.2-0.2
			c0.6-0.6,0.7-1.5,0.1-2.1c-0.6-0.7-1.6-0.7-2.1-0.2C380.7,200.6,380.4,201,380.4,201.4L380.4,201.4z"/>
		<path class="st9" d="M371.5,200.7c0.3,0.7,0.8,1.1,1.5,1.5c0.2-0.1,0.7,0.3,0.8,0.2c0.2-0.2,0.1-1.2,0.2-1.5
			c-0.3-0.6-0.8-0.9-1.5-1.3c0.4-0.7-0.4-1.5-1.1-1.8c-0.8-0.2-1.7,0.1-2,0.9c-0.2,0.7,0.2,1.7,0.9,2
			C370.6,200.7,371.1,200.9,371.5,200.7L371.5,200.7z"/>
		<path class="st8" d="M374.9,203.2c0.9-2.9,0.7-3.7,1.4-5.7c-2.3-10.2,0.6-18.4,1.5-18.6c1.1,5.3-2.4,8.2-1,13.5
			c0,2.4,1.3,1.6,1.8,1c-0.3-13.5,1.2-5.4,0.6-14.5c2.4,0.7,1.5,13.7-0.1,15.8c-0.2,2.5-2.9,3.5-2.9,8.2
			C375.6,203.2,375.8,203.1,374.9,203.2L374.9,203.2z"/>
		<path class="st8" d="M370.8,180.1c-0.2,11-2,9.4,3.8,16c0.5-0.8,0.1-1.6-0.5-3.3c-1.1-4.1,0.3-8.2-1.3-9.3c0.7,3-0.2,4.4,0.2,8.6
			c-0.1-0.1-0.8,1.1-0.8-0.5C370.4,186.9,372.4,185.8,370.8,180.1L370.8,180.1z"/>
		<path class="st8" d="M382.8,181.7c-1.4,3.4-0.5,5.6-2,12.7c-0.4,0.3-2.6,3.6-2.2,5.1c0.6-1.1,1.4-2.4,2.4-2.9
			c0.8-0.6,2.2-1.1,2.7-1.4c2.2-3.3,1.9-11.3,0.4-13.8c0.7,8.9-0.7,11.3-1.1,12c-2,2-1.1,0.9-0.8,0.2
			C383.9,188.6,383.2,184.6,382.8,181.7L382.8,181.7z"/>
	</g>
</g>
</svg>
