<?xml version="1.0" encoding="UTF-8" standalone="no"?>
<svg
   xmlns:dc="http://purl.org/dc/elements/1.1/"
   xmlns:cc="http://creativecommons.org/ns#"
   xmlns:rdf="http://www.w3.org/1999/02/22-rdf-syntax-ns#"
   xmlns:svg="http://www.w3.org/2000/svg"
   xmlns="http://www.w3.org/2000/svg"
   viewBox="0 0 800 533.33331"
   height="533.33331"
   width="800"
   xml:space="preserve"
   version="1.1"
   id="svg2"><metadata
     id="metadata8"><rdf:RDF><cc:Work
         rdf:about=""><dc:format>image/svg+xml</dc:format><dc:type
           rdf:resource="http://purl.org/dc/dcmitype/StillImage" /></cc:Work></rdf:RDF></metadata><defs
     id="defs6" /><g
     transform="matrix(1.3333333,0,0,-1.3333333,0,533.33333)"
     id="g10"><path
       id="path12"
       style="fill:#ffffff;fill-opacity:1;fill-rule:nonzero;stroke:none"
       d="M 0,0 600,0 600,400 0,400 0,0 Z" /><g
       transform="translate(150,350)"
       id="g14"><path
         id="path16"
         style="fill:#316ab1;fill-opacity:1;fill-rule:nonzero;stroke:none"
         d="M 0,0 -15.451,-47.553 8.326,-55.278 0,0 Z" /></g><g
       transform="translate(150,350)"
       id="g18"><path
         id="path20"
         style="fill:#316ab1;fill-opacity:1;fill-rule:nonzero;stroke:none"
         d="M 0,0 15.451,-47.553 -8.326,-55.278 0,0 Z" /></g><g
       transform="translate(197.5527,315.4507)"
       id="g22"><path
         id="path24"
         style="fill:#316ab1;fill-opacity:1;fill-rule:nonzero;stroke:none"
         d="M 0,0 -50,0 -50,-25 0,0 Z" /></g><g
       transform="translate(197.5527,315.4507)"
       id="g26"><path
         id="path28"
         style="fill:#316ab1;fill-opacity:1;fill-rule:nonzero;stroke:none"
         d="M 0,0 -40.451,-29.389 -55.145,-9.164 0,0 Z" /></g><g
       transform="translate(102.4473,315.4507)"
       id="g30"><path
         id="path32"
         style="fill:#316ab1;fill-opacity:1;fill-rule:nonzero;stroke:none"
         d="M 0,0 40.451,-29.389 55.145,-9.164 0,0 Z" /></g><g
       transform="translate(102.4473,315.4507)"
       id="g34"><path
         id="path36"
         style="fill:#316ab1;fill-opacity:1;fill-rule:nonzero;stroke:none"
         d="M 0,0 50,0 50,-25 0,0 Z" /></g><g
       transform="translate(179.3892,259.5493)"
       id="g38"><path
         id="path40"
         style="fill:#316ab1;fill-opacity:1;fill-rule:nonzero;stroke:none"
         d="M 0,0 -15.451,47.553 -39.227,39.827 0,0 Z" /></g><g
       transform="translate(179.3892,259.5493)"
       id="g42"><path
         id="path44"
         style="fill:#316ab1;fill-opacity:1;fill-rule:nonzero;stroke:none"
         d="M 0,0 -40.451,29.389 -25.756,49.615 0,0 Z" /></g><g
       transform="translate(120.6108,259.5493)"
       id="g46"><path
         id="path48"
         style="fill:#316ab1;fill-opacity:1;fill-rule:nonzero;stroke:none"
         d="M 0,0 40.451,29.389 25.756,49.615 0,0 Z" /></g><g
       transform="translate(120.6108,259.5493)"
       id="g50"><path
         id="path52"
         style="fill:#316ab1;fill-opacity:1;fill-rule:nonzero;stroke:none"
         d="M 0,0 15.451,47.553 39.227,39.827 0,0 Z" /></g><path
       id="path54"
       style="fill:#316ab1;fill-opacity:1;fill-rule:nonzero;stroke:none"
       d="M 0,0 300,0 300,200 0,200 0,0 Z" /><path
       id="path56"
       style="fill:#d2243e;fill-opacity:1;fill-rule:nonzero;stroke:none"
       d="m 300,200 300.001,0 0,200 -300.001,0 0,-200 z" /><g
       transform="translate(450,150)"
       id="g58"><path
         id="path60"
         style="fill:#d2243e;fill-opacity:1;fill-rule:nonzero;stroke:none"
         d="M 0,0 -15.45,-47.552 8.325,-55.278 0,0 Z" /></g><g
       transform="translate(450,150)"
       id="g62"><path
         id="path64"
         style="fill:#d2243e;fill-opacity:1;fill-rule:nonzero;stroke:none"
         d="M 0,0 15.45,-47.552 -8.325,-55.278 0,0 Z" /></g><g
       transform="translate(497.5518,115.4502)"
       id="g66"><path
         id="path68"
         style="fill:#d2243e;fill-opacity:1;fill-rule:nonzero;stroke:none"
         d="M 0,0 -50,0 -50,-25 0,0 Z" /></g><g
       transform="translate(497.5518,115.4502)"
       id="g70"><path
         id="path72"
         style="fill:#d2243e;fill-opacity:1;fill-rule:nonzero;stroke:none"
         d="M 0,0 -40.45,-29.388 -55.145,-9.164 0,0 Z" /></g><g
       transform="translate(402.4482,115.4502)"
       id="g74"><path
         id="path76"
         style="fill:#d2243e;fill-opacity:1;fill-rule:nonzero;stroke:none"
         d="M 0,0 40.45,-29.388 55.145,-9.164 0,0 Z" /></g><g
       transform="translate(402.4482,115.4502)"
       id="g78"><path
         id="path80"
         style="fill:#d2243e;fill-opacity:1;fill-rule:nonzero;stroke:none"
         d="M 0,0 50,0 50,-25 0,0 Z" /></g><g
       transform="translate(479.3896,59.5498)"
       id="g82"><path
         id="path84"
         style="fill:#d2243e;fill-opacity:1;fill-rule:nonzero;stroke:none"
         d="M 0,0 -15.452,47.552 -39.229,39.826 0,0 Z" /></g><g
       transform="translate(479.3896,59.5498)"
       id="g86"><path
         id="path88"
         style="fill:#d2243e;fill-opacity:1;fill-rule:nonzero;stroke:none"
         d="M 0,0 -40.452,29.388 -25.757,49.614 0,0 Z" /></g><g
       transform="translate(420.6104,59.5498)"
       id="g90"><path
         id="path92"
         style="fill:#d2243e;fill-opacity:1;fill-rule:nonzero;stroke:none"
         d="M 0,0 40.452,29.388 25.757,49.614 0,0 Z" /></g><g
       transform="translate(420.6104,59.5498)"
       id="g94"><path
         id="path96"
         style="fill:#d2243e;fill-opacity:1;fill-rule:nonzero;stroke:none"
         d="M 0,0 15.452,47.552 39.229,39.826 0,0 Z" /></g></g></svg>