<?xml version="1.0" encoding="UTF-8" standalone="no"?>
<svg
   xmlns:dc="http://purl.org/dc/elements/1.1/"
   xmlns:cc="http://creativecommons.org/ns#"
   xmlns:rdf="http://www.w3.org/1999/02/22-rdf-syntax-ns#"
   xmlns:svg="http://www.w3.org/2000/svg"
   xmlns="http://www.w3.org/2000/svg"
   viewBox="0 0 800 533.33331"
   height="533.33331"
   width="800"
   xml:space="preserve"
   version="1.1"
   id="svg2"><metadata
     id="metadata8"><rdf:RDF><cc:Work
         rdf:about=""><dc:format>image/svg+xml</dc:format><dc:type
           rdf:resource="http://purl.org/dc/dcmitype/StillImage" /></cc:Work></rdf:RDF></metadata><defs
     id="defs6"><clipPath
       id="clipPath22"
       clipPathUnits="userSpaceOnUse"><path
         id="path24"
         d="M 0,400 600,400 600,0 0,0 0,400 Z" /></clipPath></defs><g
     transform="matrix(1.3333333,0,0,-1.3333333,0,533.33333)"
     id="g10"><path
       id="path12"
       style="fill:#ffcd20;fill-opacity:1;fill-rule:nonzero;stroke:none"
       d="m 0,266.666 600,0 0,133.333 -600,0 0,-133.333 z" /><path
       id="path14"
       style="fill:#313d70;fill-opacity:1;fill-rule:nonzero;stroke:none"
       d="m 0,133.334 600,0 0,133.332 -600,0 0,-133.332 z" /><path
       id="path16"
       style="fill:#d02736;fill-opacity:1;fill-rule:nonzero;stroke:none"
       d="m 0,0 600,0 0,133.334 -600,0 L 0,0 Z" /><g
       id="g18"><g
         clip-path="url(#clipPath22)"
         id="g20"><g
           transform="translate(282.375,243.8203)"
           id="g26"><path
             id="path28"
             style="fill:#fefefd;fill-opacity:1;fill-rule:evenodd;stroke:none"
             d="M 0,0 C 2.25,0 7.5,1.498 10.5,1.498 8.25,-0.749 3,-4.495 3,-5.993 c 0,-2.247 3,-6.741 5.25,-9.737 -3,0.749 -8.25,4.494 -10.5,4.494 -1.5,0 -5.25,-5.243 -7.5,-8.24 l 0,3.746 c 4.5,7.49 -5.25,11.235 -8.25,11.984 2.25,1.499 6,1.499 10.5,2.248 0.75,3.745 0.75,7.49 1.5,11.236 C -3.75,6.742 -1.5,0 0,0 m 42.75,-1.498 c 3.75,0 7.5,-0.749 11.25,-1.498 -3,-1.499 -6.75,-3.746 -9.75,-5.244 0,-3.745 0.75,-7.49 0.75,-11.236 -2.25,2.997 -6,8.24 -8.25,8.24 -1.5,0 -6.75,-3.745 -9.75,-4.494 2.25,2.996 5.25,7.49 5.25,9.737 0,1.498 -4.5,4.495 -6.75,6.742 C 28.5,1.498 33,0 34.5,0 36.75,0 39,6.742 41.25,9.738 42,6.742 42,2.996 42.75,-1.498 M -42,-13.483 c 2.25,0 6.75,3.745 9.75,5.243 -0.75,-2.996 -3.75,-7.49 -3.75,-8.989 0,-2.247 5.25,-5.992 7.5,-8.988 -3,0.749 -7.5,1.498 -9,1.498 -4.5,0 -5.25,-6.742 -6.75,-10.487 -0.75,2.996 -1.5,6.742 -2.25,9.738 -3,2.996 -7.5,2.247 -10.5,2.247 2.25,2.247 9,5.992 9,7.491 0,2.247 -1.5,5.992 -2.25,8.988 3,-1.498 6.75,-6.741 8.25,-6.741 M 83.25,-15.73 c 0,-2.248 8.25,-5.993 9.75,-6.742 -3,-0.749 -6.75,-0.749 -10.5,-1.498 -1.5,-3.745 -2.25,-7.491 -3,-11.236 -2.25,2.996 -3.75,10.487 -6.75,10.487 -2.25,0 -6,-0.749 -9,-1.498 2.25,2.996 7.5,6.741 7.5,8.988 0,1.499 -3,5.993 -3.75,8.989 3,-1.498 7.5,-5.243 9,-5.243 2.25,0 6,5.243 8.25,6.741 0,-2.247 -1.5,-6.741 -1.5,-8.988 M -69,-42.697 c 3,-1.498 6.75,-2.996 10.5,-4.494 -3.75,-0.748 -7.5,-2.247 -11.25,-3.746 0,-3.745 -0.75,-7.491 -0.75,-11.235 -1.5,2.996 -5.25,10.486 -6.75,10.486 -2.25,0 -6.75,-2.247 -9.75,-2.996 1.5,2.996 4.5,5.993 6.75,8.989 -2.25,2.996 -3.75,5.992 -6,8.989 3,-0.749 8.25,-3.746 9.75,-3.746 2.25,0 6,5.993 8.25,8.24 C -69,-35.206 -69,-38.951 -69,-42.697 m 180,2.247 c 2.25,0 6,2.248 8.25,3.746 l 2.25,0 c -2.25,-2.997 -3.75,-5.993 -6,-8.989 2.25,-2.996 5.25,-5.993 6.75,-8.989 -3,0.749 -8.25,2.996 -9.75,2.996 -2.25,0 -4.5,-6.742 -6.75,-10.486 0,3.744 -0.75,7.49 -1.5,11.235 -2.25,1.499 -6,2.248 -9.75,2.998 1.5,4.493 10.5,2.996 9.75,8.238 0,2.248 -0.75,5.244 -0.75,7.491 2.25,-2.247 6,-8.24 7.5,-8.24 M -90.75,-77.154 c 3.75,-0.748 7.5,-0.748 11.25,-0.748 -3,-1.498 -9.75,-5.244 -9.75,-7.492 0,-1.498 1.5,-5.992 2.25,-9.737 -2.25,2.247 -6.75,6.741 -8.25,6.741 -2.25,0 -6.75,-4.494 -9.75,-5.993 1.5,2.997 3.75,8.24 3.75,9.738 0,2.249 -5.25,5.245 -8.25,7.491 3,0 6.75,0 10.5,0.75 1.5,2.247 3,5.992 4.5,9.737 0.75,-3.745 2.25,-7.49 3.75,-10.487 m 225,0.75 c 3.75,-0.75 7.5,-0.75 11.25,-0.75 -3,-2.246 -9,-5.242 -9,-7.491 0,-1.498 2.25,-6.741 3.75,-9.738 -3,1.499 -8.25,5.993 -9.75,5.993 -2.25,0 -6,-4.494 -9,-5.993 1.5,2.997 3,7.491 3,8.989 0,2.248 -6,5.244 -9,7.492 3,0 6.75,0 10.5,0.748 1.5,2.997 3,6.742 3.75,10.487 1.5,-2.996 2.25,-6.741 4.5,-9.737" /></g></g></g></g></svg>